<svg width="349" height="252" viewBox="0 0 349 252" fill="none" xmlns="http://www.w3.org/2000/svg">
<path d="M30.7509 218.368H0V134.106H28.8061C46.1877 134.106 54.5655 142.993 54.5655 157.243C54.5655 164.55 51.285 171.127 46.0564 173.926C52.9841 177.7 56.2663 183.424 56.2663 193.288C56.2663 208.997 46.3003 218.373 30.7423 218.373M20.0462 151.519V166.864H26.8528C31.1074 166.864 33.9017 164.186 33.9017 159.191C33.9017 154.197 31.2285 151.519 26.8528 151.519H20.0462ZM20.0462 184.034V200.718H27.5813C32.3203 200.718 35.3603 197.299 35.3603 192.314C35.3603 187.078 32.3203 184.034 27.5813 184.034H20.0462Z" fill="white"/>
<path d="M92.8554 134.099H72.5566V218.368H92.8554V134.099Z" fill="white"/>
<path d="M103.746 134.099H126.234L137.902 157.115L149.692 134.099H171.079L147.256 176.598V218.367H127.083V176.963L103.746 134.099Z" fill="white"/>
<path d="M216.898 132.516C244.489 132.516 261.506 151.391 261.506 175.991C261.506 200.711 244.368 219.951 217.507 219.951C189.917 219.951 173.264 201.077 173.264 176.355C173.264 151.878 191.005 132.516 216.898 132.516ZM217.384 200.955C232.333 200.955 240.235 189.875 240.235 176.235C240.235 162.596 231.725 151.514 217.263 151.514C202.314 151.514 194.535 162.596 194.535 176.235C194.535 190.239 203.286 200.955 217.386 200.955" fill="white"/>
<path d="M296.494 168.561V218.367H276.926V134.104H297.83L329.432 185.007V134.099H349.001V218.361H328.946L296.494 168.561Z" fill="white"/>
<path d="M74.7641 250.694H72.5566V234.677H83.2664V236.557H74.7641V241.541H81.1579V243.444H74.7641V250.694Z" fill="white"/>
<path d="M88.8005 249.298C88.2042 248.61 87.7492 247.812 87.4617 246.947C87.1742 246.083 87.0599 245.171 87.1253 244.262V234.677H89.3345V244.11C89.3345 247.415 90.6031 249.067 93.1404 249.067C95.602 249.067 96.948 247.358 96.948 244.11V234.677H99.1299V244.262C99.1965 245.173 99.0798 246.088 98.7868 246.953C98.4937 247.818 98.0303 248.616 97.4239 249.298C96.8639 249.861 96.1943 250.304 95.4566 250.598C94.7189 250.892 93.9288 251.031 93.1353 251.007C92.334 251.034 91.5357 250.896 90.7897 250.602C90.0436 250.308 89.3655 249.864 88.7971 249.298" fill="white"/>
<path d="M110.364 250.694H108.155V236.607H102.496V234.676H116.099V236.607H110.364V250.694Z" fill="white"/>
<path d="M121.17 249.298C120.573 248.61 120.118 247.812 119.831 246.947C119.543 246.083 119.429 245.171 119.494 244.262V234.677H121.704V244.11C121.704 247.415 122.972 249.067 125.51 249.067C127.971 249.067 129.317 247.358 129.317 244.11V234.677H131.49V244.262C131.557 245.173 131.44 246.088 131.147 246.953C130.854 247.818 130.391 248.616 129.785 249.298C129.225 249.861 128.555 250.304 127.817 250.598C127.08 250.892 126.289 251.031 125.496 251.007C124.695 251.034 123.896 250.896 123.15 250.602C122.404 250.308 121.726 249.864 121.158 249.298" fill="white"/>
<path d="M148.921 250.694H146.256C145.724 250.465 145.368 249.397 145.19 247.465C144.987 244.847 144.126 243.678 141.968 243.678H138.186V250.696H136.004V234.679H142.041C145.975 234.679 147.93 236.357 147.93 239.123C147.935 239.6 147.835 240.073 147.638 240.508C147.44 240.943 147.15 241.329 146.787 241.639C146.031 242.323 145.063 242.728 144.046 242.784C145.752 243.062 146.787 244.283 147.142 246.445C147.548 249.009 148.005 249.978 148.919 250.513L148.921 250.694ZM138.187 236.532V241.905H141.715C144.38 241.905 145.7 241.015 145.7 239.21C145.7 237.405 144.431 236.54 141.894 236.54L138.187 236.532Z" fill="white"/>
<path d="M163.327 248.812V250.692H152.75V234.676H163.103V236.556H154.932V241.437H160.742V243.345H154.932V248.814L163.327 248.812Z" fill="white"/>
<path d="M196.898 246.296C196.898 249.069 194.851 250.694 191.163 250.694H185.225V234.677H190.883C194.663 234.677 196.441 236.279 196.441 238.95C196.382 239.841 196.002 240.68 195.372 241.311C194.742 241.942 193.905 242.323 193.016 242.382C194.036 242.426 195.002 242.853 195.722 243.579C196.442 244.304 196.862 245.276 196.898 246.298M187.383 236.508V241.594H190.987C193.17 241.594 194.261 240.755 194.261 239.077C194.261 237.368 193.169 236.513 190.987 236.513L187.383 236.508ZM187.383 243.297V248.84H191.107C193.466 248.84 194.737 247.848 194.737 246.12C194.737 244.314 193.468 243.298 191.107 243.298L187.383 243.297Z" fill="white"/>
<path d="M210.821 250.694L209.298 246.016H203.462L201.964 250.694H199.791L205.12 234.677H207.809L213.138 250.694H210.821ZM206.33 237.12L204.046 244.239H208.74L206.43 237.12H206.33Z" fill="white"/>
<path d="M228.222 246.144C227.959 247.542 227.205 248.8 226.098 249.69C224.991 250.58 223.602 251.045 222.183 251C221.252 251.013 220.331 250.811 219.49 250.41C218.65 250.008 217.913 249.418 217.336 248.686C216.067 246.949 215.383 244.851 215.383 242.698C215.383 240.545 216.067 238.448 217.336 236.711C217.922 235.974 218.667 235.381 219.516 234.976C220.365 234.571 221.294 234.364 222.234 234.373C223.525 234.337 224.792 234.732 225.834 235.496C226.876 236.26 227.636 237.35 227.993 238.593L225.989 239.813C225.883 238.86 225.437 237.978 224.733 237.329C224.029 236.679 223.114 236.306 222.157 236.279C221.521 236.285 220.897 236.448 220.339 236.754C219.781 237.06 219.308 237.5 218.961 238.034C218.038 239.404 217.584 241.036 217.666 242.687C217.596 244.332 218.039 245.959 218.935 247.341C219.279 247.872 219.749 248.309 220.302 248.615C220.856 248.921 221.476 249.086 222.108 249.094C224.315 249.094 225.636 247.747 226.117 245.078L228.222 246.144Z" fill="white"/>
<path d="M245.112 250.694H242.473L236.789 242.76L234.276 245.608V250.692H232.043V234.676H234.276V243.066L241.762 234.676H244.375L238.336 241.234L245.112 250.694Z" fill="white"/>
<path d="M259.348 248.812V250.692H248.771V234.676H259.125V236.556H250.953V241.437H256.764V243.345H250.953V248.814L259.348 248.812Z" fill="white"/>
<path d="M263.363 250.696V234.677H267.575C268.649 234.622 269.724 234.782 270.735 235.149C271.746 235.516 272.674 236.082 273.464 236.814C274.871 238.446 275.645 240.53 275.645 242.687C275.645 244.843 274.871 246.927 273.464 248.559C272.674 249.291 271.746 249.856 270.735 250.223C269.724 250.59 268.649 250.751 267.575 250.696H263.363ZM265.596 248.865H267.323C271.204 248.865 273.336 246.628 273.336 242.687C273.336 238.745 271.204 236.51 267.323 236.51H265.596V248.865Z" fill="white"/>
<path d="M130.405 6.65559e-06V29.4526H123.312V10.0517L120.804 12.5659L115.785 7.5392L123.31 6.65559e-06H130.405ZM159.801 14.7263C159.801 11.8137 158.939 8.96654 157.324 6.54481C155.709 4.12309 153.414 2.23558 150.728 1.12098C148.042 0.00638068 145.087 -0.285249 142.236 0.282968C139.384 0.851186 136.765 2.25373 134.71 4.31324C132.654 6.37275 131.254 8.99673 130.687 11.8533C130.12 14.71 130.411 17.6709 131.524 20.3618C132.636 23.0527 134.52 25.3526 136.937 26.9708C139.354 28.5889 142.196 29.4526 145.103 29.4526C149.001 29.4526 152.74 27.9011 155.496 25.1394C158.253 22.3777 159.801 18.632 159.801 14.7263ZM174.499 29.4526C177.406 29.4526 180.248 28.5889 182.665 26.9708C185.082 25.3526 186.966 23.0527 188.079 20.3618C189.191 17.6709 189.482 14.71 188.915 11.8533C188.348 8.99673 186.948 6.37275 184.893 4.31324C182.837 2.25373 180.218 0.851186 177.367 0.282968C174.516 -0.285249 171.56 0.00638068 168.875 1.12098C166.189 2.23558 163.893 4.12309 162.278 6.54481C160.663 8.96654 159.801 11.8137 159.801 14.7263C159.801 18.632 161.35 22.3777 164.106 25.1394C166.863 27.9011 170.601 29.4526 174.499 29.4526ZM203.896 29.4526C206.803 29.4526 209.645 28.5889 212.062 26.9708C214.479 25.3526 216.363 23.0527 217.475 20.3618C218.588 17.6709 218.879 14.71 218.312 11.8533C217.744 8.99673 216.345 6.37275 214.289 4.31324C212.233 2.25373 209.614 0.851186 206.763 0.282968C203.912 -0.285249 200.957 0.00638068 198.271 1.12098C195.585 2.23558 193.29 4.12309 191.675 6.54481C190.06 8.96654 189.198 11.8137 189.198 14.7263C189.197 16.6603 189.577 18.5753 190.316 20.3621C191.055 22.1489 192.137 23.7724 193.502 25.1399C194.867 26.5074 196.487 27.5921 198.271 28.3321C200.054 29.0721 201.966 29.4528 203.896 29.4526ZM159.801 44.1789C159.801 41.2663 158.939 38.4191 157.324 35.9974C155.709 33.5757 153.414 31.6882 150.728 30.5736C148.042 29.459 145.087 29.1674 142.236 29.7356C139.384 30.3038 136.765 31.7063 134.71 33.7658C132.654 35.8253 131.254 38.4493 130.687 41.3059C130.12 44.1626 130.411 47.1235 131.524 49.8144C132.636 52.5053 134.52 54.8052 136.937 56.4234C139.354 58.0415 142.196 58.9052 145.103 58.9052C149.001 58.9052 152.74 57.3537 155.496 54.592C158.253 51.8303 159.801 48.0846 159.801 44.1789ZM174.499 29.4526C171.592 29.4526 168.751 30.3163 166.334 31.9344C163.916 33.5526 162.033 35.8525 160.92 38.5434C159.808 41.2343 159.517 44.1952 160.084 47.0519C160.651 49.9085 162.051 52.5325 164.106 54.592C166.162 56.6515 168.781 58.054 171.632 58.6222C174.483 59.1905 177.438 58.8988 180.124 57.7842C182.81 56.6696 185.105 54.7821 186.721 52.3604C188.336 49.9387 189.198 47.0915 189.198 44.1789C189.198 40.2732 187.649 36.5276 184.893 33.7658C182.136 31.0041 178.398 29.4526 174.499 29.4526ZM218.594 44.1789C218.594 41.2663 217.732 38.4191 216.117 35.9974C214.502 33.5757 212.206 31.6882 209.521 30.5736C206.835 29.459 203.879 29.1674 201.028 29.7356C198.177 30.3038 195.558 31.7063 193.503 33.7658C191.447 35.8253 190.047 38.4493 189.48 41.3059C188.913 44.1626 189.204 47.1235 190.316 49.8144C191.429 52.5053 193.313 54.8052 195.73 56.4234C198.147 58.0415 200.989 58.9052 203.896 58.9052C205.826 58.9054 207.737 58.5247 209.521 57.7847C211.304 57.0447 212.925 55.96 214.289 54.5925C215.654 53.225 216.737 51.6015 217.476 49.8147C218.214 48.0279 218.594 46.1129 218.594 44.1789ZM145.105 58.9052C142.198 58.9052 139.356 59.7689 136.939 61.387C134.522 63.0052 132.638 65.3051 131.525 67.996C130.413 70.6869 130.122 73.6478 130.689 76.5045C131.256 79.3611 132.656 81.9851 134.712 84.0446C136.767 86.1041 139.386 87.5066 142.237 88.0748C145.088 88.6431 148.044 88.3514 150.73 87.2368C153.415 86.1222 155.711 84.2347 157.326 81.813C158.941 79.3913 159.803 76.5441 159.803 73.6315C159.803 69.7259 158.254 65.9802 155.498 63.2184C152.742 60.4567 149.003 58.9052 145.105 58.9052ZM174.501 58.9052C171.594 58.9052 168.752 59.7689 166.335 61.387C163.918 63.0052 162.034 65.3051 160.922 67.996C159.809 70.6869 159.518 73.6478 160.085 76.5045C160.652 79.3611 162.052 81.9851 164.108 84.0446C166.164 86.1041 168.783 87.5066 171.634 88.0748C174.485 88.6431 177.44 88.3514 180.126 87.2368C182.812 86.1222 185.107 84.2347 186.722 81.813C188.337 79.3913 189.199 76.5441 189.199 73.6315C189.199 69.7259 187.651 65.9802 184.894 63.2184C182.138 60.4567 178.399 58.9052 174.501 58.9052ZM189.199 73.6315C189.199 76.5441 190.061 79.3913 191.676 81.813C193.291 84.2347 195.587 86.1222 198.273 87.2368C200.959 88.3514 203.914 88.6431 206.765 88.0748C209.616 87.5066 212.235 86.1041 214.291 84.0446C216.346 81.9851 217.746 79.3611 218.313 76.5045C218.88 73.6478 218.589 70.6869 217.477 67.996C216.364 65.3051 214.48 63.0052 212.063 61.387C209.646 59.7689 206.803 58.9052 203.896 58.9052C199.998 58.9052 196.261 60.4567 193.504 63.2184C190.748 65.9802 189.199 69.7259 189.199 73.6315Z" fill="white"/>
</svg>
