<svg width="1645" height="376" viewBox="0 0 1645 376" fill="none" xmlns="http://www.w3.org/2000/svg">
<path d="M324.145 311.392C309.62 330.922 290.891 346.938 269.342 358.255C244.193 370.619 216.41 376.671 188.397 375.887C162.625 376.136 137.037 371.519 112.978 362.278C90.7124 353.595 70.4966 340.376 53.6153 323.461C36.7341 306.545 23.5567 286.302 14.9206 264.02C5.33541 239.808 0.54837 213.965 0.825772 187.927C0.483023 161.883 5.27239 136.027 14.9206 111.834C23.9598 89.6543 37.485 69.5822 54.6477 52.8762C72.0172 36.2405 92.5205 23.2233 114.966 14.5813C139.025 5.34035 164.612 0.723121 190.384 0.971999C202.705 0.997907 214.995 2.18268 227.094 4.51065C239.324 6.81152 251.288 10.3565 262.797 15.0902C273.89 19.6216 284.36 25.5468 293.956 32.7229C303.204 39.2957 311.355 47.2874 318.11 56.4028L278.892 86.6994C269.199 73.8046 256.399 63.5737 241.685 56.9602C225.815 48.859 208.226 44.7021 190.409 44.8416C171.034 44.5438 151.829 48.4856 134.138 56.3907C118.057 63.5416 103.674 74.0203 91.9389 87.1357C80.0243 100.533 70.8067 116.103 64.7916 132.993C58.3364 150.579 55.0975 169.182 55.2295 187.915C55.0755 207.1 58.1355 226.176 64.2826 244.351C70.2678 261.149 79.3072 276.696 90.9452 290.208C102.804 303.089 117.179 313.4 133.181 320.505C150.784 328.059 169.776 331.837 188.93 331.593C207.889 331.841 226.647 327.693 243.734 319.475C260.127 311.431 274.156 299.277 284.455 284.197L324.145 311.392Z" fill="white"/>
<path d="M349.838 10.0489H399.6V159.218H579.56V10.0489H629.844V366.822H579.56V203.596H399.564V366.822H349.875L349.838 10.0489Z" fill="white"/>
<path d="M740.651 10.0489H690.864V366.822H740.651V10.0489Z" fill="white"/>
<path d="M852.076 322.553H1010.95V366.895H802.29V10.061H852.076V322.553Z" fill="white"/>
<path d="M1083.72 322.553H1242.6V366.895H1033.93V10.061H1083.71L1083.72 322.553Z" fill="white"/>
<path fill-rule="evenodd" clip-rule="evenodd" d="M1294.81 18.3623L1402.43 259.172L1441.21 183.794C1443.32 179.689 1446.52 176.243 1450.46 173.837C1454.4 171.43 1458.93 170.154 1463.54 170.149H1644.79V215.497H1475.85L1399.49 363.623L1290.93 120.668L1246.79 202.384C1244.64 206.369 1241.44 209.698 1237.55 212.019C1233.66 214.34 1229.22 215.567 1224.69 215.569H1139.61V170.161H1212.8L1294.81 18.3623Z" fill="white"/>
</svg>
