<svg width="38" height="46" viewBox="0 0 38 46" fill="none" xmlns="http://www.w3.org/2000/svg">
<g clip-path="url(#clip0_1_10)">
<path d="M22.918 33.7349L9.89978 45.886C9.11714 46.1479 8.25263 45.9442 7.66987 45.355L1.15111 38.7908C0.414228 38.0488 0.00244141 37.0449 0.00244141 35.9949V8.812C0.00244141 7.81052 0.397372 6.8527 1.10054 6.14463L6.3141 0.889913C7.55909 -0.363751 9.59877 -0.283729 10.7426 1.06208L37.7833 28.0728C38.1782 28.4681 38.0073 29.1446 37.4727 29.2998L27.4453 32.2267C25.2009 32.6825 25.3165 31.9163 24.676 30.3134L17.6443 12.6651C17.4709 12.2335 16.8737 12.2093 16.6666 12.6263L5.03539 36.1647C4.72716 36.7879 5.21119 37.5056 5.89268 37.4571C5.91676 37.4571 5.94084 37.4498 5.96493 37.4402L14.8364 34.2054C16.4282 33.6258 18.1066 33.3275 19.7995 33.3251L22.4509 33.2936C22.658 33.2936 23.3491 33.2985 22.9156 33.7349H22.918Z" fill="white"/>
</g>
<defs>
<clipPath id="clip0_1_10">
<rect width="38" height="46" fill="white"/>
</clipPath>
</defs>
</svg>
