<svg width="1623" height="209" viewBox="0 0 1623 209" fill="none" xmlns="http://www.w3.org/2000/svg">
<path d="M52.9035 29.4633V79.9551C52.9035 83.5016 55.7598 86.3717 59.2891 86.3717H133.605C137.134 86.3717 139.991 83.5016 139.991 79.9551V29.4633H122.981C119.451 29.4633 116.595 26.5932 116.595 23.0467V10.762C116.595 7.21547 119.451 4.34537 122.981 4.34537H186.909C190.438 4.34537 193.294 7.21547 193.294 10.762V23.0467C193.294 26.5932 190.438 29.4633 186.909 29.4633H170.172V180.555H186.909C190.438 180.555 193.294 183.425 193.294 186.972V199.256C193.294 202.803 190.438 205.673 186.909 205.673H122.981C119.451 205.673 116.595 202.803 116.595 199.256V186.972C116.595 183.425 119.451 180.555 122.981 180.555H139.991V117.906C139.991 114.36 137.134 111.49 133.605 111.49H59.2891C55.7598 111.49 52.9035 114.36 52.9035 117.906V180.555H70.1863C73.7157 180.555 76.5719 183.425 76.5719 186.972V199.256C76.5719 202.803 73.7157 205.673 70.1863 205.673H6.38554C2.85621 205.673 0 202.803 0 199.256V186.972C0 183.425 2.85621 180.555 6.38554 180.555H22.595V29.4633H6.38554C2.85621 29.4633 0 26.5932 0 23.0467V10.762C0 7.21547 2.85621 4.34537 6.38554 4.34537H70.1863C73.7157 4.34537 76.5719 7.21547 76.5719 10.762V23.0467C76.5719 26.5932 73.7157 29.4633 70.1863 29.4633H52.9035Z" fill="#D9BFA4"/>
<path d="M261.498 35.8434V174.138C261.498 177.667 264.354 180.537 267.865 180.537H276.925C280.454 180.537 283.31 183.407 283.31 186.953V199.256C283.31 202.803 280.454 205.673 276.925 205.673H215.908C212.378 205.673 209.522 202.803 209.522 199.256V186.953C209.522 183.407 212.378 180.537 215.908 180.537H224.84C228.351 180.537 231.207 177.667 231.207 174.138V35.8434C231.207 32.3151 228.351 29.445 224.84 29.445H215.908C212.378 29.445 209.522 26.5749 209.522 23.0284V10.7254C209.522 7.17891 212.378 4.30881 215.908 4.30881H276.925C280.454 4.30881 283.31 7.17891 283.31 10.7254V23.0284C283.31 26.5749 280.454 29.445 276.925 29.445H267.865C264.354 29.445 261.498 32.3151 261.498 35.8434Z" fill="#D9BFA4"/>
<path d="M479.516 4.34537H538.168C541.697 4.34537 544.554 7.21547 544.554 10.762V23.065C544.554 26.6115 541.697 29.4816 538.168 29.4816H526.707C523.196 29.4816 520.339 32.3517 520.339 35.8799V174.175C520.339 177.703 523.196 180.573 526.707 180.573H538.168C541.697 180.573 544.554 183.443 544.554 186.99V199.293C544.554 202.839 541.697 205.709 538.168 205.709H475.55C472.02 205.709 469.164 202.839 469.164 199.293V186.99C469.164 183.443 472.02 180.573 475.55 180.573H486.465C489.976 180.573 492.833 177.703 492.833 174.175V63.6303C492.833 56.5556 483.081 54.7092 480.534 61.3086L425.048 205.015C424.393 206.697 422.774 207.812 420.972 207.812C419.171 207.812 417.552 206.697 416.897 204.996L361.938 61.5646C359.409 54.9469 349.64 56.775 349.64 63.868V174.157C349.64 177.685 352.496 180.555 356.007 180.555H365.34C368.869 180.555 371.726 183.425 371.726 186.971V199.275C371.726 202.821 368.869 205.691 365.34 205.691H306.979C303.449 205.691 300.593 202.821 300.593 199.275V186.971C300.593 183.425 303.449 180.555 306.979 180.555H318.549C322.079 180.555 324.935 177.685 324.935 174.138V35.8799C324.935 32.3334 322.079 29.4633 318.549 29.4633H306.979C303.449 29.4633 300.593 26.5932 300.593 23.0467V10.7437C300.593 7.19719 303.449 4.32709 306.979 4.32709H364.94C367.578 4.32709 369.943 5.95409 370.889 8.44029L422.1 142.202L473.567 8.44029C474.513 5.97237 476.878 4.34537 479.516 4.34537Z" fill="#D9BFA4"/>
<path d="M817.476 35.8434V174.138C817.476 177.667 820.332 180.537 823.844 180.537H876.929C880.44 180.537 883.296 177.667 883.296 174.138V124.561C883.296 121.014 886.153 118.144 889.682 118.144H901.78C905.309 118.144 908.165 121.014 908.165 124.561V199.238C908.165 202.784 905.309 205.655 901.78 205.655H767.774C764.245 205.655 761.389 202.784 761.389 199.238V186.935C761.389 183.388 764.245 180.518 767.774 180.518H780.818C784.33 180.518 787.186 177.648 787.186 174.12V35.8434C787.186 32.3151 784.33 29.445 780.818 29.445H767.774C764.245 29.445 761.389 26.5749 761.389 23.0284V10.7254C761.389 7.17891 764.245 4.30881 767.774 4.30881H836.906C840.435 4.30881 843.291 7.17891 843.291 10.7254V23.0284C843.291 26.5749 840.435 29.445 836.906 29.445H823.862C820.351 29.445 817.494 32.3151 817.494 35.8434H817.476Z" fill="#D9BFA4"/>
<path d="M977.806 35.8434V174.138C977.806 177.667 980.662 180.537 984.173 180.537H993.233C996.762 180.537 999.619 183.407 999.619 186.953V199.256C999.619 202.803 996.762 205.673 993.233 205.673H932.216C928.686 205.673 925.83 202.803 925.83 199.256V186.953C925.83 183.407 928.686 180.537 932.216 180.537H941.148C944.659 180.537 947.516 177.667 947.516 174.138V35.8434C947.516 32.3151 944.659 29.445 941.148 29.445H932.216C928.686 29.445 925.83 26.5749 925.83 23.0284V10.7254C925.83 7.17891 928.686 4.30881 932.216 4.30881H993.233C996.762 4.30881 999.619 7.17891 999.619 10.7254V23.0284C999.619 26.5749 996.762 29.445 993.233 29.445H984.173C980.662 29.445 977.806 32.3151 977.806 35.8434Z" fill="#D9BFA4"/>
<path d="M1193.71 13.5407V10.762C1193.71 7.21548 1196.57 4.34537 1200.1 4.34537H1212.87C1216.4 4.34537 1219.26 7.21548 1219.26 10.762V64.069C1219.26 67.6155 1216.4 70.4856 1212.87 70.4856H1197.68C1195.26 70.4856 1193.1 69.0597 1191.97 66.9026C1186.09 55.6416 1177.43 46.5011 1165.99 39.4813C1153.36 31.7302 1140.08 27.8546 1126.17 27.8546C1112.25 27.8546 1100.02 31.1269 1089.2 37.6714C1078.39 44.216 1069.99 53.2285 1064 64.7272C1058.02 76.2076 1055.03 89.2601 1055.03 103.867C1055.03 118.473 1058.18 132.769 1064.47 144.615C1070.77 156.461 1079.52 165.674 1090.73 172.274C1101.93 178.873 1114.72 182.164 1129.08 182.164C1139.97 182.164 1150.11 180.153 1159.46 176.149C1168.81 172.146 1176.56 166.442 1182.73 159.057C1187 153.92 1190.15 148.271 1192.19 142.11C1193.55 137.96 1190.48 133.664 1186.13 133.664H1163.77C1160.24 133.664 1157.38 130.794 1157.38 127.248V114.689C1157.38 111.142 1160.24 108.272 1163.77 108.272H1224C1227.53 108.272 1230.39 111.142 1230.39 114.689V114.817C1230.39 133.975 1226.04 150.666 1217.36 164.906C1208.67 179.147 1196.7 190.061 1181.4 197.629C1166.12 205.198 1148.94 208.982 1129.88 208.982C1108.15 208.982 1089.13 204.594 1072.77 195.819C1056.42 187.045 1043.88 174.778 1035.15 159.02C1026.42 143.262 1022.05 124.963 1022.05 104.122C1022.05 83.2823 1026.42 66.5004 1035.15 50.8154C1043.88 35.1304 1055.91 22.9188 1071.24 14.1439C1086.58 5.3691 1103.95 0.981689 1123.36 0.981689C1146.32 0.981689 1166.48 6.92298 1183.82 18.8056C1188.02 21.6939 1193.7 18.6228 1193.7 13.5041L1193.71 13.5407Z" fill="#D9BFA4"/>
<path d="M1303.92 35.8434V79.9551C1303.92 83.4834 1306.78 86.3535 1310.29 86.3535H1384.64C1388.15 86.3535 1391.01 83.4834 1391.01 79.9551V35.8434C1391.01 32.3151 1388.15 29.445 1384.64 29.445H1373.98C1370.45 29.445 1367.6 26.5749 1367.6 23.0284V10.7254C1367.6 7.17891 1370.45 4.30881 1373.98 4.30881H1437.93C1441.46 4.30881 1444.31 7.17891 1444.31 10.7254V23.0284C1444.31 26.5749 1441.46 29.445 1437.93 29.445H1427.54C1424.03 29.445 1421.17 32.3151 1421.17 35.8434V174.138C1421.17 177.667 1424.03 180.537 1427.54 180.537H1437.93C1441.46 180.537 1444.31 183.407 1444.31 186.953V199.256C1444.31 202.803 1441.46 205.673 1437.93 205.673H1373.98C1370.45 205.673 1367.6 202.803 1367.6 199.256V186.953C1367.6 183.407 1370.45 180.537 1373.98 180.537H1384.64C1388.15 180.537 1391.01 177.667 1391.01 174.138V117.87C1391.01 114.342 1388.15 111.471 1384.64 111.471H1310.29C1306.78 111.471 1303.92 114.342 1303.92 117.87V174.138C1303.92 177.667 1306.78 180.537 1310.29 180.537H1321.21C1324.74 180.537 1327.59 183.407 1327.59 186.953V199.256C1327.59 202.803 1324.74 205.673 1321.21 205.673H1257.39C1253.86 205.673 1251 202.803 1251 199.256V186.953C1251 183.407 1253.86 180.537 1257.39 180.537H1267.25C1270.76 180.537 1273.61 177.667 1273.61 174.138V35.8434C1273.61 32.3151 1270.76 29.445 1267.25 29.445H1257.39C1253.86 29.445 1251 26.5749 1251 23.0284V10.7254C1251 7.17891 1253.86 4.30881 1257.39 4.30881H1321.21C1324.74 4.30881 1327.59 7.17891 1327.59 10.7254V23.0284C1327.59 26.5749 1324.74 29.445 1321.21 29.445H1310.29C1306.78 29.445 1303.92 32.3151 1303.92 35.8434Z" fill="#D9BFA4"/>
<path d="M1598.26 71.5459V35.8616C1598.26 32.3334 1595.4 29.4633 1591.89 29.4633H1563.27C1559.76 29.4633 1556.91 32.3334 1556.91 35.8616V174.157C1556.91 177.685 1559.76 180.555 1563.27 180.555H1576.59C1580.12 180.555 1582.98 183.425 1582.98 186.972V199.275C1582.98 202.821 1580.12 205.691 1576.59 205.691H1507.46C1503.93 205.691 1501.07 202.821 1501.07 199.275V186.972C1501.07 183.425 1503.93 180.555 1507.46 180.555H1520.25C1523.76 180.555 1526.62 177.685 1526.62 174.157V35.8434C1526.62 32.3151 1523.76 29.445 1520.25 29.445H1491.91C1488.39 29.445 1485.54 32.3151 1485.54 35.8434V71.5277C1485.54 75.0742 1482.68 77.9443 1479.15 77.9443H1467.18C1463.65 77.9443 1460.8 75.0742 1460.8 71.5277V10.7437C1460.8 7.19719 1463.65 4.32709 1467.18 4.32709H1616.61C1620.14 4.32709 1623 7.19719 1623 10.7437V71.5277C1623 75.0742 1620.14 77.9443 1616.61 77.9443H1604.64C1601.11 77.9443 1598.26 75.0742 1598.26 71.5277V71.5459Z" fill="#D9BFA4"/>
<path d="M746.726 195.582L667.316 11.804L666.097 9.13497C664.369 5.33254 660.548 2.8829 656.382 2.8829H650.743C646.577 2.8829 642.756 5.33254 641.01 9.17153L564.401 186.204L560.381 195.6C559.289 198.178 559.544 201.084 561.072 203.424C562.6 205.746 565.184 207.135 567.967 207.135H582.576C585.796 207.135 588.743 205.234 590.071 202.309L591.981 198.141L653.453 55.4039L715.144 198.214L717.018 202.327C718.364 205.252 721.311 207.154 724.513 207.154H739.121C741.905 207.154 744.488 205.764 746.016 203.443C747.545 201.103 747.818 198.178 746.708 195.618L746.726 195.582Z" fill="#D9BFA4"/>
</svg>
