<svg width="82" height="106" viewBox="0 0 82 106" fill="none" xmlns="http://www.w3.org/2000/svg">
<path d="M35.3255 14.129C35.3255 14.3198 35.449 14.4489 35.6959 14.5106C35.9428 14.5751 36.3484 14.6074 36.9128 14.6074H37.4331C37.6623 14.6074 37.8593 14.584 38.0297 14.5311C38.1973 14.4812 38.3472 14.3961 38.4736 14.2787C38.6 14.1613 38.7176 14.0087 38.8234 13.8208C38.9292 13.633 39.0321 13.41 39.132 13.1458C39.1585 13.0724 39.229 13.0372 39.3378 13.0372C39.3848 13.0372 39.4377 13.0519 39.5024 13.0783C39.567 13.1047 39.6288 13.1341 39.6934 13.1605C39.62 13.451 39.5553 13.768 39.4936 14.1085C39.4348 14.4489 39.3819 14.7835 39.3378 15.1122C39.329 15.2208 39.2996 15.2913 39.2496 15.3177C39.1996 15.3441 39.1467 15.3588 39.0938 15.3588C39.0203 15.3588 38.9174 15.3529 38.7852 15.3441C38.6529 15.3353 38.5089 15.3294 38.3531 15.3236C38.1973 15.3177 38.0415 15.3118 37.8798 15.303C37.7211 15.2942 37.58 15.2883 37.4624 15.2883H34.3555C34.091 15.2883 33.7882 15.2942 33.4443 15.3089C33.1033 15.3236 32.7947 15.3382 32.5213 15.3558C32.5037 15.3206 32.4949 15.2707 32.4949 15.212V15.0829C32.4949 14.945 32.5419 14.8745 32.633 14.8657C32.9799 14.8011 33.2268 14.7336 33.3796 14.6602C33.5295 14.5869 33.606 14.4607 33.606 14.2787V7.43431C33.606 7.34332 33.5971 7.26701 33.5795 7.20831C33.5619 7.14961 33.5237 7.09681 33.4708 7.05278C33.4149 7.00582 33.3326 6.96766 33.218 6.93538C33.1033 6.90309 32.9505 6.87373 32.7594 6.84731C32.6683 6.8209 32.6213 6.74168 32.6213 6.61547V6.49219C32.6213 6.43643 32.6301 6.38653 32.6477 6.3425C32.9387 6.36011 33.2503 6.37773 33.5766 6.38947C33.9058 6.40415 34.1968 6.41 34.4525 6.41C34.5789 6.41 34.7259 6.41 34.8905 6.40413C35.0551 6.40119 35.2256 6.39534 35.4049 6.38947C35.5842 6.38654 35.7605 6.37771 35.9398 6.36891C36.1162 6.3601 36.2808 6.35131 36.4249 6.3425C36.4337 6.38946 36.4395 6.43643 36.4454 6.49219C36.4484 6.54795 36.4513 6.58906 36.4513 6.61547C36.4513 6.74168 36.4043 6.8209 36.3132 6.84731C35.9222 6.90308 35.6577 6.97351 35.5254 7.05862C35.3931 7.14667 35.3285 7.27874 35.3285 7.46071V14.1261L35.3255 14.129Z" fill="#A28A4E"/>
<path d="M45.4164 12.2859H42.5417L41.8304 14.1848C41.8039 14.2317 41.7833 14.2816 41.7745 14.3345C41.7657 14.3902 41.7598 14.4313 41.7598 14.4577C41.7598 14.5575 41.8069 14.6397 41.9039 14.7043C42.0009 14.7688 42.1949 14.8217 42.4859 14.8687C42.6123 14.8863 42.6769 14.9743 42.6769 15.1269C42.6769 15.1915 42.6681 15.2678 42.6505 15.3588C42.4036 15.3412 42.1449 15.3235 41.8715 15.3118C41.5982 15.2971 41.3277 15.2913 41.0632 15.2913C40.881 15.2913 40.6899 15.2942 40.49 15.306C40.2901 15.3148 40.0667 15.3324 39.8198 15.3617C39.8022 15.3265 39.7934 15.2854 39.7934 15.2384V15.1298C39.7934 14.9567 39.8522 14.8657 39.9727 14.8569C40.2549 14.8011 40.4577 14.7424 40.5811 14.6779C40.7046 14.6133 40.8016 14.5047 40.8751 14.3492L44.1731 6.48044C44.2465 6.32488 44.3553 6.2486 44.5023 6.2486C44.5493 6.2486 44.5934 6.24857 44.6404 6.25444C44.6874 6.26031 44.7374 6.2662 44.7903 6.275L48.0883 14.3902C48.1442 14.5282 48.2471 14.628 48.4028 14.6984C48.5586 14.7659 48.7262 14.8129 48.9084 14.8422C49.0466 14.8686 49.1142 14.9596 49.1142 15.1152C49.1142 15.1886 49.1053 15.2707 49.0877 15.3617C48.7967 15.3441 48.5087 15.3265 48.2265 15.3147C47.9443 15.3001 47.6797 15.2942 47.4328 15.2942C47.3035 15.2942 47.1507 15.2942 46.9684 15.3001C46.7862 15.306 46.5981 15.3118 46.407 15.3206C46.2159 15.3294 46.0249 15.3353 45.8397 15.3412C45.6516 15.3441 45.4958 15.3529 45.3665 15.3617C45.3488 15.3265 45.34 15.2854 45.34 15.2384V15.1298C45.34 15.0477 45.3547 14.986 45.387 14.9449C45.4194 14.9038 45.4517 14.8804 45.4899 14.8687C45.728 14.8217 45.9014 14.7718 46.016 14.7102C46.1307 14.6515 46.1865 14.5634 46.1865 14.4431C46.1865 14.3873 46.1718 14.3198 46.1454 14.2376L45.4194 12.2829L45.4164 12.2859ZM45.1548 11.602L43.9908 8.52905L42.8004 11.602H45.1548Z" fill="#A28A4E"/>
<path d="M10.57 81.1935L8.098 82.0798C7.90106 82.1503 7.79231 82.2853 7.76879 82.4819C7.74822 82.6786 7.78349 82.9867 7.87755 83.4094C7.904 83.5356 7.83933 83.6266 7.68355 83.6823C7.61594 83.7058 7.53364 83.7263 7.44251 83.741C7.37197 83.4857 7.27497 83.1716 7.15152 82.793C7.031 82.4144 6.88991 82.0094 6.73412 81.5721C6.62242 81.2639 6.51074 80.9675 6.39316 80.6857C6.27559 80.404 6.16682 80.1398 6.05807 79.8991C6.08452 79.8698 6.12274 79.8463 6.16389 79.8316C6.20798 79.817 6.24031 79.8052 6.26676 79.7935C6.41373 79.7407 6.51073 79.7582 6.56364 79.8463C6.66358 80.0136 6.74588 80.1486 6.81642 80.2484C6.88697 80.3482 6.95164 80.4215 7.01042 80.4685C7.07215 80.5155 7.13388 80.539 7.19561 80.539C7.26027 80.539 7.33376 80.5243 7.419 80.4949L13.8709 78.1822C14.0414 78.1205 14.1443 78.0149 14.1766 77.8623C14.209 77.7097 14.1825 77.4514 14.1002 77.0845C14.1002 77.0346 14.1149 76.9906 14.1414 76.9524C14.1678 76.9142 14.2207 76.879 14.3089 76.8497C14.3442 76.8379 14.3824 76.8233 14.4236 76.8086C14.4676 76.7939 14.5029 76.7881 14.5352 76.7969C14.6058 77.0434 14.6881 77.3252 14.788 77.6422C14.888 77.9591 14.982 78.2438 15.0732 78.4903L15.7727 80.4304C16.1019 81.3461 16.1549 82.1385 15.9256 82.7989C15.6992 83.4622 15.2172 83.923 14.4765 84.1901C14.1414 84.3104 13.8004 84.3603 13.4477 84.3398C13.095 84.3192 12.7628 84.2253 12.4424 84.0551C12.125 83.8849 11.831 83.6412 11.5635 83.3331C11.2961 83.0219 11.0785 82.6345 10.9139 82.1738L10.5612 81.1964L10.57 81.1935ZM11.3548 81.349C11.543 81.8714 11.8281 82.2471 12.2102 82.4731C12.5923 82.6991 13.1008 82.6991 13.7357 82.4731C14.3119 82.2677 14.7116 81.98 14.9379 81.6132C15.1643 81.2463 15.1584 80.7327 14.9233 80.0723L14.7851 79.6878L11.2196 80.9675L11.3578 81.3519L11.3548 81.349Z" fill="#A28A4E"/>
<path d="M14.5059 89.3968L12.6717 87.1867L10.7523 87.853C10.6994 87.8618 10.6494 87.8794 10.6024 87.9058C10.5553 87.9322 10.5201 87.9557 10.4995 87.9733C10.4231 88.0379 10.3907 88.1259 10.4025 88.2404C10.4142 88.3549 10.4965 88.5398 10.6465 88.7922C10.7141 88.9008 10.6876 89.0064 10.57 89.1062C10.5201 89.1473 10.4554 89.1884 10.3731 89.2324C10.2291 89.0328 10.0762 88.8215 9.9116 88.6014C9.747 88.3813 9.58239 88.1699 9.41191 87.9674C9.29433 87.8265 9.17088 87.6827 9.03566 87.5331C8.90045 87.3834 8.74466 87.2249 8.56536 87.0517C8.583 87.0135 8.60651 86.9813 8.64179 86.9519C8.67706 86.9226 8.70645 86.8991 8.72702 86.8815C8.8593 86.77 8.96806 86.7582 9.05036 86.8433C9.27375 87.0253 9.44718 87.1427 9.57651 87.1985C9.7029 87.2513 9.84987 87.2572 10.0174 87.2161L18.1889 84.7301C18.3535 84.6861 18.4858 84.7213 18.5769 84.8358C18.6063 84.871 18.6328 84.9062 18.6592 84.9444C18.6857 84.9825 18.7121 85.0266 18.7386 85.0735L14.5852 92.7867C14.5147 92.9158 14.5029 93.0626 14.55 93.224C14.597 93.3854 14.6675 93.5468 14.7616 93.7053C14.8292 93.8286 14.8027 93.9401 14.6822 94.037C14.6264 94.0839 14.5558 94.128 14.4765 94.172C14.303 93.9372 14.1326 93.7053 13.9621 93.4793C13.7916 93.2533 13.6299 93.045 13.4712 92.8571C13.3889 92.7603 13.289 92.6399 13.1684 92.5049C13.0479 92.3699 12.9245 92.229 12.7951 92.0882C12.6658 91.9473 12.5394 91.8064 12.416 91.6655C12.2925 91.5246 12.1867 91.4072 12.0985 91.3163C12.1132 91.2781 12.1397 91.2458 12.1749 91.2165C12.2102 91.1871 12.2396 91.1636 12.2602 91.146C12.3248 91.0932 12.3807 91.0668 12.4336 91.0638C12.4865 91.0638 12.5277 91.0726 12.557 91.0932C12.7452 91.2458 12.8951 91.3485 13.0156 91.3984C13.1332 91.4483 13.239 91.4366 13.3301 91.3603C13.3713 91.3251 13.4153 91.2722 13.4624 91.1988L14.5059 89.3938V89.3968ZM14.8674 88.7628L16.4958 85.9071L13.3654 86.9549L14.8674 88.7628Z" fill="#A28A4E"/>
<path d="M21.5633 93.538L21.0254 93.2974L19.8555 95.9036C19.7703 96.0944 19.7909 96.2676 19.9173 96.4173C20.0437 96.5669 20.2906 96.7577 20.6609 96.9808C20.7697 97.0512 20.7903 97.1598 20.7227 97.3095C20.6933 97.377 20.6521 97.4474 20.5963 97.5238C20.3611 97.3976 20.0672 97.2508 19.7115 97.0747C19.3558 96.9015 18.9649 96.7166 18.5416 96.5288C18.2418 96.3938 17.9508 96.2705 17.6657 96.159C17.3806 96.0475 17.116 95.9447 16.8662 95.8537C16.8662 95.8126 16.8721 95.7715 16.8926 95.7304C16.9103 95.6894 16.925 95.6541 16.9367 95.6307C17.0014 95.4898 17.0808 95.4311 17.1807 95.4546C17.3688 95.4986 17.5246 95.5309 17.6481 95.5514C17.7686 95.572 17.8685 95.5749 17.942 95.5632C18.0184 95.5514 18.0772 95.525 18.1213 95.478C18.1654 95.434 18.2065 95.3695 18.2448 95.2873L21.0489 89.0416C21.1224 88.8743 21.1165 88.7276 21.0313 88.5984C20.9431 88.4693 20.7403 88.3079 20.417 88.1142C20.3817 88.0789 20.3611 88.0379 20.3494 87.9938C20.3405 87.9498 20.3523 87.8853 20.3905 87.8031C20.4052 87.7708 20.4228 87.7326 20.4405 87.6916C20.4581 87.6505 20.4816 87.6211 20.511 87.6035C20.7374 87.7238 20.999 87.8588 21.2958 88.0085C21.5927 88.1582 21.8631 88.2844 22.1042 88.393L23.9883 89.2383C24.4292 89.4349 24.7996 89.6668 25.1023 89.9309C25.4022 90.1951 25.6314 90.4827 25.7872 90.7909C25.943 91.0991 26.0224 91.4219 26.0282 91.7536C26.0341 92.0852 25.9636 92.4169 25.8137 92.7515C25.6167 93.1917 25.2993 93.5322 24.8672 93.7728C24.4351 94.0135 23.9383 94.1191 23.3828 94.0898L24.0618 97.8202C24.1147 98.1049 24.2205 98.3309 24.3792 98.5011C24.538 98.6713 24.6908 98.8151 24.8378 98.9325C24.876 98.9589 24.8995 98.9942 24.9113 99.0323C24.923 99.0734 24.9113 99.1292 24.8789 99.2055C24.8642 99.2378 24.8466 99.2759 24.829 99.317C24.8113 99.3581 24.7819 99.3963 24.7467 99.4315C24.6585 99.3816 24.5321 99.317 24.3675 99.2407C24.2029 99.1615 24.0324 99.0793 23.859 98.9912C23.6826 98.9032 23.5063 98.8152 23.3299 98.733C23.1535 98.6479 23.0066 98.5803 22.889 98.5275C22.7156 98.4483 22.5715 98.2986 22.4628 98.0755C22.354 97.8525 22.2688 97.5825 22.21 97.2655L21.5574 93.5439L21.5633 93.538ZM21.6809 92.8424C21.9396 92.9569 22.1835 93.0362 22.4128 93.0802C22.6421 93.1242 22.8596 93.1183 23.0653 93.0655C23.2682 93.0127 23.4563 92.9041 23.6238 92.7397C23.7914 92.5754 23.9442 92.3405 24.0853 92.0324C24.3175 91.5158 24.3734 91.055 24.2587 90.6441C24.1441 90.2332 23.7679 89.8869 23.1359 89.6022L22.7626 89.4349L21.3076 92.6751L21.6809 92.8424Z" fill="#A28A4E"/>
<path d="M29.9729 98.6449C29.967 98.7359 29.967 98.8122 29.9758 98.8709C29.9847 98.9296 30.017 98.9854 30.0728 99.0352C30.1287 99.0851 30.211 99.1292 30.3227 99.1703C30.4344 99.2114 30.5843 99.2524 30.7724 99.2935C30.8606 99.3199 30.9017 99.3992 30.8929 99.5342C30.8929 99.5606 30.8841 99.6017 30.8782 99.6575C30.8694 99.7103 30.8577 99.7573 30.8488 99.7925C30.5578 99.7514 30.2492 99.7132 29.9171 99.6751C29.5849 99.6369 29.2939 99.6076 29.0382 99.59C28.7736 99.5694 28.4768 99.5548 28.1505 99.543C27.8213 99.5313 27.5126 99.5254 27.2187 99.5225C27.204 99.4843 27.1981 99.4403 27.2011 99.3845C27.204 99.3288 27.2069 99.2906 27.2099 99.2612C27.2216 99.1174 27.2716 99.0411 27.3627 99.0411C27.5567 99.0294 27.7096 99.0089 27.8271 98.9854C27.9418 98.9619 28.03 98.9296 28.0888 98.8885C28.1475 98.8474 28.1858 98.7975 28.2093 98.7388C28.2328 98.6801 28.2475 98.6068 28.2534 98.5158L28.7619 91.6919C28.7677 91.601 28.7648 91.5246 28.753 91.4659C28.7384 91.4043 28.706 91.3515 28.6561 91.3016C28.6031 91.2517 28.5238 91.2077 28.4121 91.1666C28.3004 91.1255 28.1505 91.0844 27.9624 91.0433C27.8742 91.011 27.833 90.9288 27.8418 90.8026C27.8418 90.7762 27.8477 90.7351 27.8507 90.6793C27.8536 90.6236 27.8683 90.5766 27.8889 90.5326C28.1799 90.5737 28.4856 90.6118 28.8118 90.65C29.1381 90.6882 29.4321 90.7175 29.6966 90.7381C29.9494 90.7557 30.2433 90.7703 30.5784 90.7821C30.9106 90.7938 31.2251 90.7997 31.5161 90.8026C31.522 90.8496 31.5249 90.8995 31.5249 90.9553C31.5249 91.011 31.5249 91.0521 31.5249 91.0785C31.5161 91.2047 31.4632 91.281 31.3721 91.3016C31.1781 91.3133 31.0252 91.3339 30.9076 91.3573C30.79 91.3808 30.7019 91.4131 30.6401 91.4542C30.5784 91.4953 30.5373 91.5452 30.5196 91.6039C30.502 91.6626 30.4902 91.736 30.4814 91.8269L29.9729 98.6508V98.6449Z" fill="#A28A4E"/>
<path d="M38.165 92.9921C38.0827 93.0185 37.9974 93.0332 37.9063 93.0332C37.7799 93.0332 37.6888 93.0097 37.6329 92.9569C37.5771 92.9041 37.5418 92.8542 37.5242 92.7984C37.3125 92.2789 37.0421 91.9062 36.71 91.6772C36.3778 91.4513 35.931 91.3368 35.3755 91.3368C34.9375 91.3368 34.5671 91.4425 34.2615 91.6567C33.9558 91.871 33.8029 92.1967 33.8029 92.6341C33.8029 92.9716 33.9205 93.2416 34.1527 93.4471C34.3849 93.6525 34.6759 93.8315 35.0286 93.9871C35.3784 94.1426 35.7576 94.2923 36.1632 94.4391C36.5689 94.5858 36.9481 94.7678 37.2978 94.985C37.6476 95.2022 37.9416 95.481 38.1738 95.8185C38.406 96.156 38.5236 96.5875 38.5236 97.1158C38.5236 97.4621 38.4648 97.7996 38.3443 98.1283C38.2267 98.4571 38.0386 98.7447 37.7828 98.9942C37.5271 99.2437 37.2038 99.4462 36.8128 99.5958C36.4219 99.7455 35.9516 99.8218 35.4049 99.8218C34.8023 99.8218 34.2644 99.7573 33.7912 99.6281C33.3179 99.499 32.924 99.3581 32.6154 99.2055C32.589 98.8151 32.5449 98.4306 32.4861 98.052C32.4273 97.6734 32.3597 97.3065 32.2862 96.9514C32.3773 96.9162 32.4831 96.8957 32.6007 96.8957C32.7095 96.8957 32.7918 96.9162 32.8476 96.9573C32.9035 96.9984 32.9476 97.0688 32.9858 97.1686C33.1033 97.5149 33.2356 97.8143 33.3826 98.0638C33.5295 98.3133 33.6971 98.5187 33.8882 98.6772C34.0792 98.8357 34.2997 98.9531 34.5524 99.0265C34.8023 99.0998 35.0933 99.1351 35.4225 99.1351C35.7047 99.1351 35.9457 99.0969 36.1486 99.0177C36.3484 98.9413 36.513 98.8386 36.6424 98.7095C36.7717 98.5803 36.8658 98.4307 36.9304 98.2575C36.9951 98.0843 37.0245 97.9053 37.0245 97.7233C37.0245 97.33 36.9128 97.0248 36.6894 96.7988C36.466 96.5757 36.1868 96.3879 35.8546 96.2382C35.5225 96.0885 35.1609 95.9476 34.7729 95.8126C34.3849 95.6806 34.0263 95.5103 33.6912 95.3078C33.3591 95.1024 33.0798 94.8382 32.8564 94.5154C32.633 94.1925 32.5213 93.7552 32.5213 93.2093C32.5213 92.8454 32.586 92.5049 32.7212 92.1909C32.8535 91.8768 33.0475 91.6009 33.3032 91.3691C33.5589 91.1372 33.8676 90.9523 34.2262 90.8143C34.5848 90.6764 34.9992 90.6089 35.4637 90.6089C35.8458 90.6089 36.2308 90.65 36.6188 90.7322C37.0068 90.8144 37.4477 90.9494 37.9386 91.1431C37.9563 91.4161 37.9857 91.7242 38.0268 92.0647C38.068 92.4051 38.115 92.7133 38.1708 92.9862L38.165 92.9921Z" fill="#A28A4E"/>
<path d="M42.333 98.6478C42.333 98.7388 42.3389 98.8151 42.3536 98.8738C42.3683 98.9325 42.4036 98.9854 42.4623 99.0294C42.5211 99.0764 42.6093 99.1145 42.721 99.1468C42.8356 99.1791 42.9885 99.2084 43.1796 99.2348C43.2707 99.2525 43.3177 99.3288 43.3177 99.4667C43.3177 99.4931 43.3177 99.5342 43.3118 99.59C43.3059 99.6457 43.3001 99.6898 43.2913 99.7279C43.0003 99.7103 42.6857 99.6927 42.3536 99.681C42.0214 99.6692 41.7275 99.6604 41.4718 99.6604C41.216 99.6604 40.9103 99.6663 40.5811 99.681C40.2519 99.6956 39.9433 99.7103 39.6493 99.7279C39.6317 99.6927 39.6229 99.6457 39.6229 99.59V99.4667C39.6229 99.32 39.6699 99.2436 39.761 99.2348C39.9521 99.2084 40.105 99.1791 40.2196 99.1468C40.3342 99.1145 40.4195 99.0764 40.4724 99.0294C40.5282 98.9854 40.5635 98.9325 40.5811 98.8738C40.5988 98.8151 40.6076 98.7388 40.6076 98.6478V91.8035C40.6076 91.7125 40.5988 91.6362 40.5811 91.5775C40.5635 91.5188 40.5253 91.4659 40.4724 91.4219C40.4195 91.3779 40.3342 91.3368 40.2196 91.3045C40.105 91.2722 39.9521 91.2429 39.761 91.2165C39.6699 91.1901 39.6229 91.1108 39.6229 90.9846V90.8613C39.6229 90.8055 39.6317 90.7556 39.6493 90.7116C39.9403 90.7292 40.2519 90.7469 40.5811 90.7586C40.9103 90.7733 41.2043 90.7791 41.4718 90.7791C41.7393 90.7791 42.0214 90.7733 42.3536 90.7586C42.6857 90.7439 43.0003 90.7292 43.2913 90.7116C43.3001 90.7586 43.3059 90.8055 43.3118 90.8613C43.3148 90.9171 43.3177 90.9582 43.3177 90.9846C43.3177 91.1108 43.2707 91.1901 43.1796 91.2165C42.9885 91.2429 42.8356 91.2722 42.721 91.3045C42.6064 91.3368 42.5211 91.3749 42.4623 91.4219C42.4036 91.4689 42.3653 91.5188 42.3536 91.5775C42.3389 91.6362 42.333 91.7125 42.333 91.8035V98.6478Z" fill="#A28A4E"/>
<path d="M47.2624 91.463V94.7561H49.1906C49.364 94.7561 49.4816 94.6856 49.5463 94.5447C49.6109 94.4039 49.6638 94.1749 49.7109 93.855C49.7197 93.7816 49.7461 93.7347 49.7932 93.7112C49.8373 93.6877 49.899 93.676 49.9695 93.676C49.996 93.676 50.0401 93.676 50.0989 93.6818C50.1576 93.6877 50.2017 93.6936 50.2282 93.7024C50.2106 93.9108 50.1929 94.1544 50.1812 94.4332C50.1694 94.712 50.1606 94.9439 50.1606 95.1376C50.1606 95.302 50.1635 95.4957 50.1753 95.7187C50.187 95.9418 50.2017 96.1942 50.2311 96.4759C50.2047 96.4936 50.1606 96.5053 50.1018 96.5112C50.043 96.517 49.9989 96.517 49.9725 96.517C49.8079 96.517 49.7226 96.4525 49.7138 96.3263C49.658 95.9799 49.5962 95.7451 49.5286 95.6219C49.461 95.4986 49.3493 95.437 49.1935 95.437H47.2653V98.4982C47.2653 98.6889 47.3829 98.8181 47.621 98.8797C47.8591 98.9443 48.2588 98.9766 48.8261 98.9766H49.3993C49.6726 98.9766 49.9019 98.9413 50.09 98.868C50.2782 98.7946 50.4428 98.6919 50.5897 98.5598C50.7367 98.4277 50.8631 98.2722 50.9719 98.0961C51.0806 97.917 51.1894 97.7204 51.3011 97.5003C51.3275 97.4357 51.3922 97.4034 51.4921 97.4034C51.5392 97.4034 51.5921 97.4181 51.6567 97.4445C51.7214 97.4709 51.7831 97.5003 51.8478 97.5267C51.8302 97.6001 51.8096 97.6676 51.7861 97.7321C51.7625 97.7967 51.742 97.8583 51.7243 97.9229C51.6773 98.0227 51.642 98.1342 51.6156 98.2516C51.5891 98.369 51.5597 98.4659 51.5333 98.5392C51.5156 98.6302 51.4951 98.733 51.4716 98.8474C51.448 98.9619 51.4245 99.0705 51.4039 99.1762C51.3834 99.2818 51.3569 99.3757 51.3363 99.455C51.3158 99.5342 51.2981 99.5929 51.2893 99.6193C51.254 99.6927 51.1805 99.7279 51.0718 99.7279C50.9983 99.7279 50.8954 99.722 50.7573 99.7132C50.6191 99.7044 50.4722 99.6986 50.3134 99.6927C50.1547 99.6868 49.993 99.681 49.8284 99.6721C49.6638 99.6633 49.5227 99.6575 49.4052 99.6575H46.2982C46.0337 99.6575 45.7309 99.6633 45.387 99.678C45.0461 99.6927 44.7374 99.7074 44.4641 99.725C44.4464 99.6898 44.4376 99.6399 44.4376 99.5812V99.452C44.4376 99.3141 44.4846 99.2436 44.5758 99.2348C44.9226 99.1703 45.1695 99.1028 45.3224 99.0294C45.4723 98.956 45.5487 98.8298 45.5487 98.6478V91.8035C45.5487 91.7125 45.534 91.6362 45.5075 91.5775C45.4811 91.5188 45.4282 91.4689 45.3518 91.4278C45.2753 91.3867 45.1725 91.3515 45.0519 91.3192C44.9314 91.2869 44.7727 91.2546 44.5787 91.2165C44.4876 91.1901 44.4405 91.1079 44.4405 90.9699V90.8408C44.4405 90.7997 44.4494 90.7556 44.467 90.7116C44.8579 90.738 45.2048 90.7586 45.5075 90.7674C45.8074 90.7762 46.069 90.7821 46.2865 90.7821H49.0907C49.5022 90.7821 49.8549 90.7674 50.1518 90.741C50.4486 90.7146 50.6515 90.6999 50.7602 90.6999C50.8602 90.6999 50.9336 90.741 50.9777 90.8232C51.0042 90.8965 51.0277 91.0315 51.0453 91.2253C51.063 91.4219 51.0953 91.6244 51.1394 91.8328C51.1659 91.9884 51.1982 92.138 51.2364 92.2848C51.2717 92.4315 51.3275 92.6076 51.401 92.819C51.354 92.8366 51.304 92.8542 51.2511 92.8747C51.1953 92.8923 51.1423 92.9012 51.0865 92.9012C50.9865 92.9012 50.9131 92.86 50.869 92.7779C50.7602 92.5401 50.6515 92.3376 50.5486 92.1703C50.4428 92.003 50.3252 91.8651 50.1929 91.7594C50.0606 91.6538 49.9049 91.5804 49.7285 91.5334C49.5492 91.4894 49.3376 91.4659 49.0936 91.4659H47.2741L47.2624 91.463Z" fill="#A28A4E"/>
<path d="M60.131 94.9351L58.7171 90.2949C58.6583 90.1041 58.5525 89.9867 58.3968 89.9485C58.241 89.9104 57.9911 89.9192 57.6472 89.9749C57.5267 89.9838 57.4444 89.9163 57.4003 89.7783C57.3915 89.7519 57.3827 89.7167 57.368 89.6727C57.3533 89.6286 57.3503 89.5846 57.3533 89.5347C57.5796 89.4936 57.7971 89.4466 58.0117 89.3909C58.2263 89.3351 58.4702 89.2647 58.7495 89.1825C59.0287 89.0974 59.2668 89.0211 59.4667 88.9506C59.6636 88.8802 59.8605 88.8039 60.0516 88.7159C60.0722 88.7569 60.0928 88.798 60.1104 88.842C60.128 88.8861 60.1398 88.9183 60.1486 88.9448C60.1927 89.0944 60.1663 89.1913 60.0663 89.2412C59.793 89.3733 59.6137 89.4936 59.5343 89.6022C59.452 89.7138 59.4402 89.8546 59.4931 90.0278L61.8211 97.6734C61.7888 97.694 61.7329 97.7175 61.6506 97.7468C61.5683 97.7762 61.5154 97.7938 61.489 97.8026C61.4272 97.8202 61.3567 97.8261 61.2773 97.8173C61.198 97.8084 61.1039 97.7673 60.9981 97.6969L53.8495 92.728L55.569 98.3749C55.5955 98.4629 55.6249 98.5334 55.6543 98.5862C55.6837 98.639 55.7337 98.6772 55.8042 98.6977C55.8748 98.7183 55.9659 98.73 56.0834 98.7271C56.201 98.7271 56.3568 98.7124 56.5508 98.6919C56.5978 98.6889 56.639 98.6948 56.6801 98.7183C56.7213 98.7388 56.7536 98.7975 56.783 98.8944C56.8007 98.956 56.8154 99.0323 56.8242 99.1233C56.6008 99.1732 56.3921 99.2202 56.1951 99.2642C55.9982 99.3082 55.7748 99.3698 55.522 99.4462C55.2692 99.5225 55.0282 99.6017 54.8019 99.6868C54.5755 99.769 54.3668 99.8482 54.1817 99.9246C54.1523 99.8952 54.1317 99.86 54.1199 99.816C54.1052 99.7719 54.0964 99.7367 54.0876 99.7103C54.0612 99.6223 54.0582 99.5577 54.0788 99.5136C54.0994 99.4696 54.1288 99.4374 54.1699 99.4139C54.4668 99.2671 54.6578 99.138 54.7372 99.0265C54.8166 98.9179 54.8342 98.7799 54.7842 98.6126L52.7678 92.0001C52.7267 91.8621 52.6473 91.7682 52.5327 91.7213C52.418 91.6743 52.1917 91.6802 51.8566 91.733C51.7449 91.7389 51.6655 91.6714 51.6244 91.5334C51.6185 91.5158 51.6126 91.4953 51.6068 91.4747C51.6009 91.4542 51.598 91.4278 51.598 91.3984L51.5803 91.2898C51.7067 91.2605 51.8243 91.2311 51.9389 91.2018C52.0536 91.1724 52.1682 91.1431 52.2858 91.1196C52.4798 91.0697 52.6767 91.0169 52.8736 90.9611C53.0706 90.9053 53.2322 90.8584 53.3528 90.8232C53.6055 90.7468 53.776 90.7057 53.8613 90.7057C53.9465 90.7057 54.0288 90.7234 54.1082 90.7674L60.1251 94.938L60.131 94.9351Z" fill="#A28A4E"/>
<path d="M68.5758 88.3871L65.1632 84.9385C65.0221 84.7947 64.8751 84.7448 64.7194 84.78C64.5636 84.8182 64.349 84.9415 64.0698 85.1528C63.9669 85.2173 63.864 85.1968 63.7611 85.0941C63.7406 85.0735 63.717 85.05 63.6847 85.0177C63.6524 84.9855 63.6259 84.9473 63.6083 84.9004C63.7905 84.7595 63.961 84.6157 64.1227 84.4689C64.2843 84.3222 64.4695 84.1461 64.6782 83.9406C64.8869 83.7352 65.0603 83.5561 65.2044 83.4035C65.3484 83.2509 65.4836 83.0895 65.6129 82.9222C65.6511 82.9486 65.6894 82.975 65.7246 83.0043C65.7599 83.0337 65.7864 83.0572 65.8069 83.0777C65.9157 83.1893 65.9392 83.289 65.8716 83.3771C65.6894 83.6207 65.5894 83.8115 65.5688 83.9465C65.5483 84.0815 65.6012 84.2136 65.7305 84.3427L71.3565 90.0278C71.3359 90.0601 71.2977 90.107 71.2389 90.1716C71.1801 90.2362 71.1419 90.2773 71.1213 90.2978C71.0743 90.3418 71.0155 90.38 70.942 90.4093C70.8686 90.4387 70.7657 90.4446 70.6363 90.4328L61.9946 89.3586L66.1479 93.5556C66.2126 93.6202 66.2684 93.6701 66.3213 93.7024C66.3742 93.7347 66.433 93.7464 66.5036 93.7317C66.5741 93.7171 66.6623 93.6848 66.7652 93.6261C66.868 93.5674 67.0003 93.4852 67.162 93.3766C67.2002 93.3502 67.2443 93.3385 67.2884 93.3385C67.3325 93.3385 67.3913 93.3737 67.4618 93.4471C67.5059 93.494 67.5559 93.5527 67.6058 93.632C67.4295 93.7787 67.2678 93.9166 67.115 94.0487C66.9621 94.1808 66.7916 94.3393 66.6035 94.5242C66.4154 94.7091 66.239 94.894 66.0773 95.0701C65.9157 95.2491 65.7687 95.4164 65.6394 95.569C65.6012 95.5573 65.5659 95.5338 65.5336 95.5015C65.5012 95.4693 65.4748 95.4428 65.4571 95.4252C65.3925 95.3607 65.3601 95.3049 65.3572 95.255C65.3543 95.2051 65.366 95.164 65.3925 95.1259C65.5865 94.8558 65.6952 94.6533 65.7158 94.5183C65.7364 94.3833 65.6864 94.2542 65.563 94.1309L60.6983 89.2148C60.5954 89.1121 60.4837 89.0651 60.3603 89.0769C60.2368 89.0886 60.0399 89.1972 59.7694 89.4026C59.6724 89.4613 59.5725 89.4379 59.4696 89.3322C59.4579 89.3205 59.4432 89.3058 59.4255 89.2882C59.4108 89.2735 59.3961 89.25 59.3814 89.2265L59.3138 89.1385C59.4108 89.0563 59.5049 88.9741 59.5901 88.8949C59.6783 88.8156 59.7665 88.7364 59.8576 88.6601C60.0075 88.5251 60.1545 88.3871 60.3044 88.2462C60.4543 88.1054 60.5719 87.9909 60.663 87.8999C60.8511 87.715 60.9834 87.6005 61.0569 87.5595C61.1304 87.5184 61.2127 87.4978 61.3038 87.4978L68.5729 88.3901L68.5758 88.3871Z" fill="#A28A4E"/>
<path d="M66.7093 81.079L69.8074 82.206L70.4688 80.3951C70.5276 80.2337 70.5011 80.0958 70.3924 79.9901C70.2807 79.8815 70.0837 79.7524 69.7986 79.5998C69.7339 79.5675 69.6987 79.5235 69.6928 79.4736C69.6869 79.4237 69.6957 79.365 69.7222 79.2945C69.731 79.2681 69.7486 79.23 69.7722 79.1742C69.7957 79.1214 69.8192 79.0832 69.8368 79.0597C70.0279 79.1478 70.2513 79.2476 70.507 79.3562C70.7627 79.4648 70.9832 79.5499 71.1625 79.6174C71.3153 79.6732 71.5005 79.7348 71.7122 79.8023C71.9238 79.8698 72.1678 79.9402 72.4441 80.0107C72.4529 80.043 72.447 80.087 72.4323 80.1457C72.4176 80.2044 72.4029 80.2455 72.3941 80.269C72.3382 80.4216 72.2471 80.4832 72.1237 80.448C71.7798 80.3805 71.5387 80.3599 71.3976 80.3805C71.2566 80.401 71.1625 80.4861 71.1096 80.6329L70.4482 82.4438L73.3288 83.4916C73.5081 83.5561 73.6698 83.4916 73.8109 83.2891C73.952 83.0895 74.1195 82.7226 74.3135 82.1914L74.5104 81.6513C74.6045 81.396 74.6486 81.1671 74.6427 80.9645C74.6398 80.765 74.5986 80.5742 74.5252 80.3922C74.4517 80.2103 74.3488 80.0371 74.2194 79.8727C74.0901 79.7084 73.9402 79.5382 73.7727 79.3621C73.7227 79.3151 73.7139 79.2446 73.7492 79.1507C73.7639 79.1096 73.7962 79.0627 73.8432 79.0098L73.9872 78.8572C74.049 78.8983 74.1078 78.9423 74.1577 78.9864C74.2106 79.0304 74.2635 79.0715 74.3165 79.1096C74.3958 79.186 74.484 79.2593 74.5869 79.3239C74.6897 79.3914 74.7691 79.4501 74.8279 79.5C74.9073 79.547 74.9955 79.6027 75.0954 79.6614C75.1953 79.723 75.2894 79.7818 75.3805 79.8375C75.4716 79.8933 75.551 79.949 75.6215 79.9989C75.6921 80.0488 75.7362 80.0811 75.7597 80.0987C75.8155 80.1574 75.8244 80.2396 75.7861 80.3423C75.7626 80.4098 75.7215 80.5067 75.6656 80.6329C75.6098 80.7591 75.5539 80.8941 75.4951 81.0438C75.4364 81.1905 75.3746 81.3402 75.31 81.4929C75.2453 81.6425 75.1924 81.7746 75.1512 81.8861L74.0872 84.8006C73.996 85.0471 73.8991 85.3347 73.7962 85.6605C73.6933 85.9863 73.6022 86.2798 73.5258 86.544C73.4846 86.5498 73.4376 86.541 73.3817 86.5205C73.3259 86.4999 73.2847 86.4853 73.2583 86.4765C73.1289 86.4295 73.076 86.362 73.0995 86.2739C73.1583 85.9276 73.1789 85.6693 73.1613 85.505C73.1436 85.3377 73.0496 85.2262 72.8791 85.1616L66.4389 82.8194C66.3537 82.7872 66.2772 82.7754 66.2126 82.7813C66.1479 82.7872 66.0832 82.8195 66.0186 82.8782C65.9539 82.9369 65.8863 83.019 65.8128 83.1247C65.7393 83.2304 65.6541 83.3654 65.5541 83.5327C65.4983 83.609 65.4042 83.6237 65.2749 83.5767C65.2308 83.562 65.1926 83.5473 65.1515 83.5327C65.1132 83.518 65.075 83.4945 65.0397 83.4622C65.1985 83.1042 65.3366 82.7842 65.4483 82.5054C65.56 82.2266 65.6541 81.983 65.7276 81.7775L66.6887 79.1478C66.8298 78.7633 66.9386 78.4258 67.0121 78.1382C67.0885 77.8505 67.1443 77.6568 67.1826 77.5541C67.2178 77.4602 67.2796 77.4044 67.3736 77.3897C67.4501 77.3897 67.5853 77.4132 67.7763 77.4631C67.9674 77.513 68.1673 77.5511 68.3818 77.5805C68.5376 77.6069 68.6905 77.6304 68.8374 77.6451C68.9873 77.6597 69.1725 77.6715 69.3959 77.6744C69.3959 77.7243 69.3959 77.7771 69.3959 77.8358C69.3959 77.8945 69.3842 77.9474 69.3665 78.0002C69.3312 78.0941 69.2695 78.1499 69.1755 78.1646C68.9168 78.1851 68.6875 78.2174 68.4935 78.2585C68.2995 78.2996 68.1291 78.3641 67.985 78.4522C67.841 78.5402 67.7175 78.6606 67.6147 78.8103C67.5118 78.9629 67.4177 79.1537 67.3325 79.3826L66.7093 81.0908V81.079Z" fill="#A28A4E"/>
<path d="M53.0265 0H28.9735C12.9979 0 0 12.9785 0 28.9302V77.0698C0 93.0273 12.9979 106 28.9735 106H53.0265C69.002 106 82 93.0273 82 77.0698V28.9302C82 12.9785 69.002 0 53.0265 0ZM80.3863 73.9998L63.4525 70.0317L62.3708 69.7764L63.4496 70.1256L80.3892 75.6082V77.0698C80.3892 92.1615 68.1379 104.395 53.0265 104.395H28.9735C13.8651 104.395 1.61078 92.1615 1.61078 77.0698V75.526L18.5504 70.0464L19.3882 69.7734L18.5446 69.9701L1.61078 73.9382V28.9272C1.61078 19.6556 6.24325 11.4641 13.3125 6.53035L19.9643 13.2427C14.8262 17.0082 11.1961 22.6992 10.0409 28.9478C9.07681 33.3943 10.1614 55.9144 10.0351 60.8775C10.3084 56.2197 9.96451 33.2974 11.0256 29.1503C12.316 23.1717 16.0373 17.7714 21.1018 14.3902L27.9594 21.3139L27.5303 20.8032L14.6646 5.64104C18.8297 3.0876 23.7267 1.60837 28.9735 1.60837H53.0265C58.3056 1.60837 63.232 3.10816 67.4118 5.69094L54.5491 20.8531L54.1581 21.3139L54.5932 20.8736L60.9658 14.4401C65.9951 17.8271 69.684 23.2011 70.9685 29.1473C72.0355 33.4031 71.6828 56.0758 71.9591 60.8804C71.8297 56.07 72.9173 33.2886 71.9532 28.9507C70.8039 22.7285 67.2002 17.064 62.0974 13.2926L68.7493 6.58022C75.7861 11.5198 80.3863 19.6879 80.3863 28.9272V73.9998Z" fill="#A28A4E"/>
<path d="M51.7949 38.0697C48.7732 35.0525 44.7786 33.3914 40.5459 33.3914C36.8569 33.3914 33.2415 34.7003 30.3727 37.0806C26.7484 40.086 25.217 44.9611 26.4692 49.4927L26.4897 49.5749C26.5808 49.9124 26.8924 50.1442 27.2422 50.1442C27.3128 50.1442 27.3774 50.1325 27.445 50.1178C27.6478 50.0621 27.8154 49.9329 27.9183 49.7539C28.0211 49.569 28.0447 49.3635 27.9888 49.161L27.9682 49.0788C26.8807 45.1342 28.2122 40.8873 31.3632 38.2752C33.9528 36.1297 37.2155 34.9439 40.5459 34.9439C44.3671 34.9439 47.9708 36.4437 50.6956 39.1674C53.6026 42.0701 55.522 47.5145 53.7172 51.6088C52.0477 55.392 48.2911 57.831 44.1554 57.831H41.4718V39.1087C41.4718 39.0705 41.4659 39.0441 41.46 39.0177H41.3895C41.3895 39.0177 41.3895 39.006 41.3836 39.0001L41.4482 38.9795C41.4424 38.9355 41.4365 38.8915 41.4218 38.8445C41.4042 38.7946 41.3777 38.7624 41.363 38.7301L41.2925 38.7477C41.2925 38.7477 41.2866 38.7359 41.2807 38.7301L41.3395 38.6919C41.3189 38.6596 41.2954 38.6274 41.2631 38.5892C41.2307 38.551 41.1866 38.5246 41.1543 38.4982L41.122 38.4777C41.1043 38.4601 41.0838 38.4395 41.0514 38.4219C41.0397 38.4161 41.0132 38.4102 41.0015 38.4043C40.9809 38.3926 40.9368 38.3838 40.9045 38.3779L40.878 38.372L40.8516 38.3603C40.8134 38.3544 40.7692 38.3427 40.7252 38.3397C40.7075 38.3397 40.7075 38.3339 40.6987 38.3339C40.6605 38.3339 40.6282 38.3456 40.6076 38.3515V38.4219H40.587L40.5694 38.3632C40.5253 38.3691 40.4783 38.3749 40.4283 38.3896C40.3842 38.4072 40.346 38.4337 40.3137 38.4483L40.3313 38.5188C40.3313 38.5188 40.3195 38.5246 40.3137 38.5305L40.2754 38.4718C40.249 38.4923 40.2108 38.5158 40.1784 38.5422C40.1343 38.5804 40.1079 38.6244 40.0814 38.6626L40.0609 38.689C40.0491 38.7066 40.0285 38.7271 40.0109 38.7594L30.8341 56.6276C30.8165 56.6599 30.8136 56.6834 30.8136 56.6981C30.8018 56.7098 30.7871 56.7304 30.7753 56.7568C30.743 56.8478 29.92 58.9639 29.7907 61.5936C29.6114 65.1861 30.8136 67.989 33.2679 69.703C34.1615 70.3223 35.0316 70.6363 35.8575 70.6363C36.5806 70.6363 37.1244 70.3986 37.4536 70.1902C39.0144 69.2275 39.5876 67.0175 39.3437 65.3269C39.1144 63.745 38.2561 62.6414 36.9863 62.301C36.4748 62.1601 36.1368 61.758 36.1368 61.2943V61.1593C36.1368 60.1819 36.9304 59.3865 37.9122 59.3865H39.9257V71.0061C39.9257 71.4346 40.2754 71.7839 40.7046 71.7839C41.1337 71.7839 41.4777 71.4346 41.4777 71.0061V59.3865H44.1613C48.9143 59.3865 53.2234 56.5777 55.1458 52.234C57.2239 47.5321 55.0752 41.3422 51.8037 38.0697H51.7949ZM39.9198 57.831H37.9063C36.0721 57.831 34.576 59.3249 34.576 61.1563V61.2913C34.576 62.4594 35.3755 63.472 36.5747 63.7919C37.4889 64.0414 37.7388 65.1009 37.8034 65.5471C37.9945 66.8883 37.483 68.347 36.6335 68.8665C36.4043 69.0133 36.1427 69.0837 35.8605 69.0837C35.3608 69.0837 34.7729 68.8548 34.1556 68.4263C32.1363 67.0175 31.1957 64.7429 31.3485 61.6494C31.469 59.2897 32.2127 57.3409 32.2186 57.3174L32.492 56.7891H39.9227V57.8281L39.9198 57.831ZM39.9198 55.2453H33.2856L39.9198 42.3254V55.2453Z" fill="#A28A4E"/>
<path d="M45.0137 70.2665C45.0137 71.0061 44.4082 71.6078 43.6704 71.6078C42.9326 71.6078 42.3213 71.0032 42.3213 70.2665C42.3213 69.5299 42.9268 68.9193 43.6704 68.9193C44.4141 68.9193 45.0137 69.524 45.0137 70.2665Z" fill="#A28A4E"/>
<path d="M54.5932 20.8736C54.5932 20.8736 54.5667 20.856 54.5491 20.8531C51.9595 19.365 48.9496 18.5168 45.7486 18.5168H36.2514C33.0769 18.5168 30.1052 19.3474 27.5332 20.8061C27.5156 20.8179 27.5009 20.8237 27.4832 20.8325C22.1424 23.8761 18.5446 29.614 18.5446 36.1972V69.973C18.5446 69.9994 18.5446 70.0229 18.5504 70.0493C18.6768 79.7025 26.5515 87.489 36.2514 87.489H45.7486C55.425 87.489 63.2849 79.7377 63.4496 70.1256C63.4554 70.0933 63.4554 70.0669 63.4554 70.0347V36.1972C63.4554 29.6492 59.89 23.9378 54.5932 20.8766V20.8736ZM61.8417 69.8087C61.8417 78.6664 54.6255 85.8777 45.7456 85.8777H36.2485C27.3715 85.8777 20.1524 78.6664 20.1524 69.8087V36.1942C20.1524 27.3306 27.3686 20.1223 36.2485 20.1223H45.7456C54.6226 20.1223 61.8417 27.3276 61.8417 36.1942V69.8087Z" fill="#A28A4E"/>
</svg>
