<svg width="236" height="61" viewBox="0 0 236 61" fill="none" xmlns="http://www.w3.org/2000/svg">
<path d="M45.42 20.46C42.93 20.46 40.92 22.48 40.92 24.96C40.92 34.01 33.34 41.33 24.2 40.9C16.08 40.52 9.4 33.84 9.02 25.72C8.59 16.57 15.91 9 24.96 9C28.71 9 32.35 10.33 35.22 12.74C37.12 14.34 39.96 14.09 41.56 12.18C43.15 10.28 42.91 7.44 41 5.84C36.52 2.08 30.82 0 24.96 0C11.2 0 0 11.2 0 24.96V57.41C0 59.31 1.54 60.85 3.44 60.85H5.37C7.27 60.85 8.81 59.31 8.81 57.41V53.31C8.81 49.5 12.63 46.99 16.2 48.33C18.93 49.36 21.88 49.92 24.96 49.92C28.04 49.92 31 49.36 33.74 48.32C37.31 46.97 41.13 49.49 41.13 53.3V56.25C41.13 58.55 42.81 60.61 45.1 60.83C47.73 61.08 49.94 59.03 49.94 56.44V24.96H49.92C49.92 22.48 47.9 20.46 45.42 20.46Z" fill="white"/>
<path d="M13.87 25.62C13.87 26.96 14.96 28.05 16.3 28.05C17.64 28.05 18.73 26.96 18.73 25.62C18.73 24.28 17.64 23.19 16.3 23.19C14.96 23.19 13.87 24.28 13.87 25.62Z" fill="white"/>
<path d="M22.35 25.62C22.35 26.96 23.44 28.05 24.78 28.05C26.12 28.05 27.21 26.96 27.21 25.62C27.21 24.28 26.12 23.19 24.78 23.19C23.44 23.19 22.35 24.28 22.35 25.62Z" fill="white"/>
<path d="M31.22 25.62C31.22 26.96 32.31 28.05 33.65 28.05C34.99 28.05 36.08 26.96 36.08 25.62C36.08 24.28 34.99 23.19 33.65 23.19C32.31 23.19 31.22 24.28 31.22 25.62Z" fill="white"/>
<path d="M84.43 19.55H84.22L80 9.25H73.85V27.44H78.68V16.85H78.82L82.87 27.29H85.78L89.83 16.93H89.97V27.44H94.8V9.25H88.66L84.43 19.55Z" fill="white"/>
<path d="M104.05 9.25L98.05 27.43H103.38L104.43 23.95H110.43L111.48 27.43H116.81L110.81 9.25H104.05ZM105.54 20.26L107.35 14.26H107.49L109.3 20.26H105.53H105.54Z" fill="white"/>
<path d="M124.97 9.25H120.03V27.43H124.97V9.25Z" fill="white"/>
<path d="M133.75 21.44H135.46L138.65 27.44H144.01L140.31 20.65C141.25 20.2 142 19.56 142.54 18.73C143.12 17.84 143.41 16.74 143.41 15.44C143.41 14.14 143.13 13.04 142.57 12.12C142.01 11.2 141.22 10.49 140.21 10C139.2 9.51 138.02 9.26 136.67 9.26H128.82V27.44H133.76V21.44H133.75ZM135.49 13.2C136.07 13.2 136.57 13.28 136.98 13.44C137.39 13.6 137.71 13.84 137.93 14.17C138.15 14.5 138.26 14.92 138.26 15.44C138.26 15.96 138.15 16.37 137.93 16.69C137.71 17.01 137.39 17.24 136.98 17.39C136.57 17.54 136.07 17.61 135.49 17.61H133.75V13.21H135.49V13.2Z" fill="white"/>
<path d="M160.07 23.46H151.94V20.33H159.43V16.36H151.94V13.23H160.11V9.25H147V27.44H160.07V23.46Z" fill="white"/>
<path d="M172.7 23.41C172.35 23.54 171.9 23.61 171.38 23.61C170.75 23.61 170.21 23.51 169.76 23.32C169.31 23.12 168.96 22.84 168.71 22.46C168.46 22.08 168.32 21.61 168.29 21.06H163.6C163.6 22.58 163.93 23.83 164.58 24.8C165.23 25.77 166.14 26.49 167.31 26.96C168.48 27.43 169.86 27.66 171.44 27.66C173.02 27.66 174.3 27.44 175.4 27.01C176.5 26.58 177.34 25.95 177.93 25.12C178.52 24.29 178.82 23.28 178.83 22.08C178.83 21.39 178.71 20.75 178.5 20.16C178.28 19.57 177.95 19.05 177.49 18.58C177.03 18.11 176.45 17.7 175.73 17.35C175.01 17 174.15 16.72 173.15 16.51L171.66 16.19C171.23 16.1 170.85 16 170.54 15.89C170.23 15.78 169.97 15.65 169.77 15.51C169.57 15.37 169.42 15.21 169.33 15.04C169.24 14.87 169.2 14.67 169.21 14.45C169.21 14.18 169.3 13.95 169.45 13.74C169.6 13.53 169.84 13.37 170.16 13.25C170.48 13.13 170.9 13.07 171.41 13.07C172.21 13.07 172.81 13.24 173.2 13.57C173.59 13.9 173.81 14.36 173.86 14.95H178.58C178.58 13.76 178.28 12.72 177.7 11.83C177.12 10.94 176.29 10.25 175.22 9.76C174.15 9.27 172.88 9.02 171.41 9.02C169.94 9.02 168.7 9.26 167.59 9.75C166.48 10.24 165.61 10.91 164.99 11.78C164.37 12.65 164.06 13.66 164.06 14.81C164.06 16.23 164.51 17.35 165.44 18.17C166.37 18.99 167.63 19.57 169.24 19.92L171.05 20.31C171.72 20.46 172.26 20.62 172.66 20.79C173.06 20.96 173.34 21.15 173.52 21.36C173.69 21.57 173.78 21.81 173.79 22.09C173.79 22.39 173.69 22.65 173.51 22.88C173.33 23.11 173.06 23.29 172.7 23.42V23.41Z" fill="white"/>
<path d="M88.11 47.8C88.6 46.99 88.95 46.1 89.17 45.12C89.39 44.14 89.5 43.13 89.5 42.08H85.63C85.63 42.94 85.48 43.73 85.17 44.45C85.06 44.71 84.93 44.94 84.79 45.17L82.48 42.62L83.35 42C84.12 41.45 84.72 40.81 85.14 40.07C85.56 39.34 85.77 38.55 85.77 37.7C85.77 36.85 85.57 36.09 85.17 35.39C84.77 34.69 84.2 34.13 83.47 33.71C82.74 33.29 81.86 33.08 80.84 33.08C79.82 33.08 78.84 33.31 78.04 33.76C77.24 34.22 76.62 34.83 76.18 35.59C75.74 36.35 75.51 37.2 75.51 38.12C75.51 38.95 75.67 39.72 75.99 40.42C76.28 41.06 76.62 41.63 77.01 42.15L76.97 42.17C76.34 42.6 75.79 43.03 75.33 43.47C74.86 43.91 74.5 44.39 74.24 44.91C73.98 45.43 73.85 46.04 73.85 46.72C73.85 47.66 74.1 48.51 74.6 49.29C75.1 50.07 75.83 50.68 76.77 51.15C77.71 51.61 78.83 51.84 80.13 51.84C80.89 51.84 81.67 51.74 82.46 51.55C83.25 51.36 84.01 51.03 84.74 50.56C84.74 50.56 84.74 50.56 84.75 50.56L85.7 51.56H90.6L87.72 48.39C87.86 48.2 87.99 48.01 88.11 47.8ZM79.78 39.27C79.58 38.91 79.48 38.55 79.48 38.2C79.48 37.95 79.53 37.73 79.64 37.54C79.75 37.36 79.9 37.21 80.11 37.11C80.32 37.01 80.55 36.95 80.83 36.95C81.28 36.95 81.61 37.05 81.82 37.28C82.03 37.51 82.14 37.76 82.14 38.05C82.14 38.27 82.07 38.52 81.92 38.8C81.77 39.08 81.49 39.35 81.08 39.61L80.33 40.07C80.12 39.79 79.92 39.51 79.78 39.25V39.27ZM80.47 48C80.07 48 79.73 47.94 79.44 47.8C79.15 47.67 78.92 47.48 78.76 47.24C78.6 47 78.52 46.7 78.52 46.36C78.52 45.95 78.62 45.61 78.83 45.35C78.98 45.16 79.16 45 79.35 44.84L82.01 47.65C81.5 47.86 80.98 47.99 80.47 47.99V48Z" fill="white"/>
<path d="M106.34 38.03C106.91 37.63 107.61 37.43 108.44 37.43C108.91 37.43 109.34 37.5 109.71 37.63C110.08 37.76 110.4 37.95 110.66 38.2C110.92 38.45 111.13 38.74 111.28 39.07C111.43 39.4 111.52 39.78 111.56 40.2H116.57C116.48 39.07 116.21 38.07 115.76 37.19C115.31 36.31 114.73 35.58 114 34.97C113.27 34.37 112.43 33.91 111.46 33.6C110.5 33.29 109.44 33.13 108.29 33.13C106.66 33.13 105.18 33.49 103.85 34.2C102.52 34.91 101.47 35.96 100.69 37.35C99.91 38.74 99.52 40.44 99.52 42.47C99.52 44.5 99.9 46.18 100.67 47.57C101.44 48.96 102.48 50.01 103.8 50.73C105.12 51.45 106.62 51.8 108.29 51.8C109.62 51.8 110.79 51.6 111.8 51.19C112.81 50.78 113.65 50.24 114.33 49.57C115.01 48.9 115.54 48.16 115.91 47.37C116.28 46.57 116.5 45.79 116.56 45.02L111.55 44.98C111.49 45.37 111.38 45.72 111.21 46.03C111.04 46.34 110.82 46.61 110.56 46.82C110.29 47.04 109.98 47.21 109.62 47.32C109.26 47.44 108.85 47.49 108.39 47.49C107.59 47.49 106.91 47.3 106.34 46.93C105.77 46.55 105.34 45.99 105.04 45.24C104.74 44.49 104.59 43.56 104.59 42.45C104.59 41.4 104.74 40.49 105.03 39.74C105.32 38.99 105.75 38.41 106.33 38.01L106.34 38.03Z" fill="white"/>
<path d="M125.25 33.38H120.31V51.56H125.25V33.38Z" fill="white"/>
<path d="M128.59 37.35H134.06V51.56H138.92V37.35H144.39V33.38H128.59V37.35Z" fill="white"/>
<path d="M158.98 34.2C157.64 33.49 156.15 33.13 154.51 33.13C152.87 33.13 151.36 33.49 150.02 34.2C148.69 34.91 147.63 35.96 146.84 37.35C146.06 38.74 145.66 40.44 145.66 42.47C145.66 44.5 146.05 46.18 146.84 47.57C147.62 48.96 148.68 50.01 150.02 50.73C151.35 51.45 152.85 51.81 154.51 51.81C156.17 51.81 157.65 51.45 158.98 50.74C160.32 50.03 161.38 48.98 162.17 47.59C162.96 46.2 163.35 44.5 163.35 42.47C163.35 40.44 162.96 38.74 162.17 37.35C161.38 35.96 160.32 34.91 158.98 34.2ZM157.84 45.23C157.55 45.98 157.13 46.55 156.57 46.93C156.01 47.32 155.32 47.51 154.51 47.51C153.7 47.51 153.01 47.32 152.45 46.93C151.89 46.54 151.47 45.97 151.18 45.23C150.89 44.48 150.75 43.56 150.75 42.47C150.75 41.38 150.89 40.46 151.18 39.71C151.47 38.96 151.89 38.39 152.45 38.01C153.01 37.62 153.7 37.43 154.51 37.43C155.32 37.43 156.01 37.62 156.57 38.01C157.13 38.4 157.55 38.97 157.84 39.71C158.13 40.46 158.27 41.38 158.27 42.47C158.27 43.56 158.13 44.48 157.84 45.23Z" fill="white"/>
<path d="M172.65 40.76H172.51L168.96 33.38H163.46L170.13 45.84V51.56H175.03V45.84L181.71 33.38H176.21L172.65 40.76Z" fill="white"/>
<path d="M183.81 51.56H196.88V47.58H188.74V44.46H196.24V40.48H188.74V37.35H196.91V33.38H183.81V51.56Z" fill="white"/>
<path d="M211.66 42.89H211.52L205.05 33.38H200.86V51.56H205.8V42.01H205.9L212.47 51.56H216.59V33.38H211.66V42.89Z" fill="white"/>
<path d="M234.88 44.28C234.66 43.69 234.33 43.17 233.87 42.7C233.41 42.23 232.83 41.82 232.11 41.47C231.39 41.12 230.53 40.84 229.53 40.63L228.04 40.31C227.61 40.22 227.23 40.12 226.92 40.01C226.61 39.9 226.35 39.77 226.15 39.63C225.95 39.49 225.8 39.33 225.71 39.16C225.62 38.99 225.58 38.79 225.59 38.57C225.59 38.3 225.68 38.07 225.83 37.86C225.98 37.65 226.22 37.49 226.54 37.37C226.86 37.25 227.28 37.19 227.79 37.19C228.59 37.19 229.19 37.36 229.58 37.69C229.97 38.02 230.19 38.48 230.24 39.07H234.96C234.96 37.88 234.66 36.84 234.08 35.95C233.5 35.06 232.67 34.37 231.6 33.88C230.53 33.39 229.26 33.14 227.79 33.14C226.32 33.14 225.08 33.38 223.97 33.87C222.86 34.36 221.99 35.03 221.37 35.9C220.75 36.77 220.44 37.78 220.44 38.93C220.44 40.35 220.89 41.47 221.82 42.29C222.75 43.11 224.01 43.69 225.62 44.04L227.43 44.43C228.1 44.58 228.64 44.74 229.04 44.91C229.44 45.08 229.72 45.27 229.9 45.48C230.07 45.69 230.16 45.93 230.17 46.21C230.17 46.51 230.07 46.77 229.89 47C229.71 47.23 229.44 47.41 229.08 47.54C228.73 47.67 228.28 47.74 227.76 47.74C227.13 47.74 226.59 47.64 226.14 47.45C225.69 47.25 225.34 46.97 225.09 46.59C224.84 46.21 224.7 45.74 224.67 45.19H219.98C219.98 46.71 220.31 47.96 220.96 48.93C221.61 49.9 222.52 50.62 223.69 51.09C224.86 51.56 226.24 51.79 227.82 51.79C229.4 51.79 230.68 51.57 231.78 51.14C232.88 50.71 233.72 50.08 234.31 49.25C234.9 48.42 235.2 47.41 235.21 46.21C235.21 45.52 235.09 44.88 234.88 44.29V44.28Z" fill="white"/>
</svg>
