<svg width="858" height="299" viewBox="0 0 858 299" fill="none" xmlns="http://www.w3.org/2000/svg">
<path d="M423.8 135.65C424.03 135.65 424.15 135.8 424.15 136.11V137.49C424.15 137.8 424.03 137.95 423.8 137.95H396.93C396.62 137.95 396.47 137.8 396.47 137.49V136.11C396.47 135.8 396.62 135.65 396.93 135.65C403.22 135.65 406.63 132.95 407.17 127.54C407.32 125.97 407.49 123.35 407.66 119.69C407.83 116.03 408.34 108.14 409.18 96.04C410.02 83.94 410.45 74.15 410.45 66.67V64.54C410.45 63.01 409.58 61.7199 407.83 60.6799C406.08 59.6399 404.81 59.13 404 59.13C403.19 59.13 402.79 58.98 402.79 58.67V57.29C402.79 56.98 402.94 56.83 403.25 56.83H419.88C420.61 56.95 421.2 57.37 421.66 58.1L448.65 118.23C448.84 118.5 449 118.73 449.11 118.92C449.22 119.11 449.51 119.2 449.97 119.18C450.43 119.16 450.78 118.83 451.01 118.17L477.71 59.13C478.52 57.6 479.24 56.83 479.9 56.83H496.64C496.95 56.83 497.1 56.98 497.1 57.29V58.67C497.1 58.98 497.01 59.13 496.81 59.13C495.66 59.13 494.24 59.51 492.55 60.28C489.98 61.43 488.69 63.14 488.69 65.4L492.14 128.98C492.22 130.97 493.25 132.58 495.25 133.81C497.24 135.04 499.85 135.65 503.08 135.65C503.39 135.65 503.54 135.8 503.54 136.11V137.49C503.54 137.8 503.39 137.95 503.08 137.95H470.4C470.09 137.95 469.94 137.8 469.94 137.49V136.11C469.94 135.8 470.09 135.65 470.4 135.65C477.27 135.65 480.7 133.98 480.7 130.64L477.65 75.6899C477.61 75.3099 477.51 75.11 477.33 75.11C477.15 75.11 477.01 75.28 476.9 75.63L448.3 137.54C448.15 137.81 447.7 137.94 446.98 137.94C446.26 137.94 445.83 137.79 445.71 137.48L417.51 75.45C417.28 74.91 417.06 74.64 416.85 74.64C416.64 74.64 416.53 75.06 416.53 75.91C416.53 77.67 416.07 86 415.15 100.88C414.23 115.76 413.77 125.05 413.77 128.73V131.09C414.23 133.28 416.4 134.69 420.27 135.35C421.38 135.54 422.55 135.64 423.78 135.64L423.8 135.65Z" fill="#6C96BC"/>
<path d="M536.58 137.49C536.58 137.8 536.43 137.95 536.12 137.95H506.72C506.41 137.95 506.26 137.8 506.26 137.49V136.11C506.26 135.8 506.51 135.65 507.01 135.65C512.27 135.42 515.81 132.62 517.66 127.25L541.141 59.29C541.181 59.21 541.2 59.12 541.2 59L540.57 57.1C540.57 56.91 540.65 56.8099 540.8 56.8099H552.31C552.39 56.8499 552.49 56.8899 552.63 56.9299C552.77 56.9699 552.87 57.08 552.95 57.28L577.29 125.58C577.83 126.62 578.26 127.56 578.58 128.4C578.9 129.24 579.28 130.01 579.7 130.7C580.62 132.27 582.14 133.48 584.25 134.33C586.01 135.21 587.62 135.65 589.08 135.65C589.39 135.65 589.54 135.82 589.54 136.17V137.49C589.54 137.8 589.39 137.95 589.08 137.95H553.86C553.55 137.95 553.401 137.8 553.401 137.49V136.11C553.401 135.8 554.111 135.61 555.531 135.53C556.951 135.45 558.12 135.38 559.04 135.3C564.37 134.72 567.04 132.92 567.04 129.89C567.04 129.66 567 129.39 566.92 129.08L558.23 104.57C558.19 104.49 558.11 104.32 558 104.05C557.54 102.75 556.73 102.09 555.58 102.09H535.151C534.001 102.09 533.1 102.72 532.45 103.99C532.33 104.26 532.281 104.41 532.281 104.45L523.651 129.71V130.23C523.651 131.23 524.17 132.13 525.2 132.93C527.54 134.73 530.691 135.63 534.641 135.63H536.141C536.451 135.63 536.6 135.78 536.6 136.09V137.47L536.58 137.49ZM553.61 95.72C554.3 95.72 554.651 95.43 554.651 94.86C554.651 94.55 554.57 94.2099 554.42 93.8199L545.85 70.23C545.47 69.19 545.18 68.6799 544.99 68.6799C544.8 68.6799 544.49 69.22 544.07 70.29L536.01 93.8199C535.86 94.1999 535.781 94.6199 535.781 95.0599C535.781 95.4999 536.071 95.72 536.641 95.72H553.61Z" fill="#6C96BC"/>
<path d="M592.8 137.95C592.49 137.95 592.34 137.57 592.34 136.8V136.11C592.34 135.8 592.49 135.65 592.8 135.65C593.03 135.65 593.401 135.61 593.891 135.53C594.381 135.45 594.91 135.38 595.44 135.3C595.98 135.22 596.48 135.14 596.94 135.04C597.4 134.94 597.73 134.88 597.92 134.84C601.83 133.96 603.79 131.73 603.79 128.17V67.41C603.79 64.11 602.47 61.77 599.82 60.39C598.25 59.55 596.56 59.12 594.76 59.12H592.57C592.26 59.12 592.11 58.97 592.11 58.66V57.28C592.11 56.97 592.34 56.8199 592.8 56.8199L624.391 55.96H630.2C636.99 56.42 642.68 58.89 647.26 63.35C651.84 67.82 654.141 73.33 654.141 79.86C654.141 86.39 651.42 91.49 645.97 95.14C644.28 96.25 642.46 97.25 640.5 98.13L657.93 126.61C660.96 131.6 665.03 135.11 670.13 137.14C670.55 137.26 670.76 137.52 670.76 137.95C670.76 138.91 670.13 139.39 668.86 139.39C660.23 139.39 653.36 136.11 648.26 129.55C647.15 128.09 646.04 126.46 644.92 124.66L630.021 101.3L616.33 100.67H615.87C615.29 100.67 615.01 100.94 615.01 101.48V128.01C615.01 130.12 615.61 131.69 616.79 132.73C617.98 133.77 620.03 134.48 622.95 134.86C623.72 134.98 624.661 135.14 625.771 135.35C626.881 135.56 627.64 135.67 628.04 135.67C628.44 135.67 628.641 135.82 628.641 136.13V137.51C628.641 137.82 628.49 137.97 628.18 137.97H592.79L592.8 137.95ZM619.67 58.98C619.21 59 618.72 59.02 618.2 59.04C617.68 59.06 617.02 59.08 616.21 59.1C615.4 59.12 615 59.4399 615 60.0499V94.92L615.12 96.65C615.24 97.46 615.6 97.88 616.21 97.92L622.08 98.27C632.86 98.27 639.36 94.44 641.59 86.76C642.32 84.34 642.68 81.58 642.68 78.47C642.68 72.41 640.79 67.63 637.01 64.14C633.23 60.65 628.41 58.9 622.54 58.9C622 58.9 621.5 58.8999 621.04 58.9299C620.58 58.9599 620.12 58.97 619.66 58.99L619.67 58.98Z" fill="#6C96BC"/>
<path d="M748.85 135.77C748.66 136.08 748.19 136.14 747.44 135.97C746.69 135.8 745.82 135.71 744.82 135.71C743.82 135.71 742.41 135.91 740.59 136.31C738.77 136.71 735.9 137.35 731.99 138.21C728.08 139.07 724.51 139.5 721.29 139.5C714 139.5 706.93 137.78 700.09 134.35C693.24 130.92 687.77 126.04 683.66 119.73C679.55 113.42 677.5 106.1 677.5 97.78C677.5 89.46 679.55 81.92 683.66 75.17C689.64 65.27 698.66 58.83 710.7 55.84C714.53 54.88 718.37 54.4 722.21 54.4C727.47 54.4 733.7 55.2799 740.91 57.0499C743.1 57.5899 744.95 58.14 746.46 58.72C747.98 59.3 748.91 59.58 749.25 59.58L750.98 59.12H752.76C753.22 59.12 753.45 59.44 753.45 60.1V78C753.45 78.38 753.1 78.58 752.41 78.58C751.72 78.58 751.32 78.4899 751.2 78.3199C751.08 78.1499 750.97 77.9399 750.85 77.6899C750.73 77.4399 750.61 77.18 750.48 76.91C750.35 76.64 750.21 76.39 750.08 76.16C749.95 75.93 749.86 75.76 749.82 75.64C744.07 64.09 735.341 58.3199 723.641 58.3199C713.091 58.3199 704.841 61.68 698.901 68.39C692.951 75.1 689.98 83.9899 689.98 95.0599C689.98 106.13 693.25 115.63 699.79 123.57C706.33 131.51 715.22 135.48 726.46 135.48C732.6 135.48 738.19 133.66 743.23 130.01C748.27 126.36 752.24 121.9 755.11 116.6C755.19 116.37 755.42 116.25 755.8 116.25H756.55C756.93 116.25 757.13 116.48 757.13 116.94C757.13 117.4 757.011 117.84 756.781 118.26L748.84 135.75L748.85 135.77Z" fill="#6C96BC"/>
<path d="M824.401 137.78C820.451 138.93 816.94 139.51 813.87 139.51C807.58 139.51 801.58 138.49 795.86 136.46C788.03 133.62 781.74 129.42 776.99 123.86C770.93 116.76 767.901 107.77 767.901 96.87C767.901 89.01 769.91 81.84 773.94 75.38C777.97 68.91 783.54 63.8099 790.66 60.0499C797.77 56.2899 805.43 54.41 813.62 54.41C821.81 54.41 829.15 56.23 835.63 59.88C842.11 63.53 847.31 68.53 851.22 74.9C855.13 81.27 857.09 88.16 857.09 95.59C857.09 103.02 855.151 110.07 851.281 116.77C847.401 123.47 842.09 128.88 835.34 133.03C832 135.06 828.36 136.66 824.41 137.81L824.401 137.78ZM779.98 95.03C779.98 101.4 781.39 107.72 784.21 113.99C787.03 120.26 791.07 125.37 796.32 129.32C801.58 133.27 807.66 135.25 814.56 135.25C824.38 135.25 832.031 131.49 837.521 123.97C842.471 117.18 844.94 108.51 844.94 97.96C844.94 87.41 841.91 78.3199 835.85 70.6899C832.89 66.9699 829.28 63.99 825 61.74C820.72 59.5 816.41 58.37 812.05 58.37C807.69 58.37 804.13 58.8499 801.35 59.8099C798.57 60.7699 796.051 62.08 793.781 63.75C791.521 65.42 789.52 67.4 787.8 69.71C786.07 72.01 784.64 74.5099 783.48 77.1899C781.14 82.7099 779.97 88.66 779.97 95.03H779.98Z" fill="#6C96BC"/>
<path d="M422.3 241.69C422.3 242 422.15 242.15 421.84 242.15H392.44C392.13 242.15 391.98 242 391.98 241.69V240.31C391.98 240 392.23 239.85 392.73 239.85C397.99 239.62 401.53 236.82 403.38 231.45L426.86 163.49C426.9 163.41 426.92 163.32 426.92 163.2L426.29 161.3C426.29 161.11 426.37 161.01 426.52 161.01H438.03C438.11 161.05 438.21 161.09 438.35 161.13C438.49 161.17 438.59 161.28 438.67 161.48L463.01 229.78C463.55 230.82 463.98 231.76 464.3 232.6C464.62 233.44 465 234.21 465.42 234.9C466.34 236.47 467.86 237.68 469.97 238.53C471.73 239.41 473.34 239.85 474.8 239.85C475.11 239.85 475.26 240.02 475.26 240.37V241.69C475.26 242 475.11 242.15 474.8 242.15H439.58C439.27 242.15 439.12 242 439.12 241.69V240.31C439.12 240 439.83 239.81 441.25 239.73C442.67 239.65 443.84 239.58 444.76 239.5C450.09 238.92 452.76 237.12 452.76 234.09C452.76 233.86 452.72 233.59 452.64 233.28L443.95 208.77C443.91 208.69 443.83 208.52 443.72 208.25C443.26 206.95 442.45 206.29 441.3 206.29H420.87C419.72 206.29 418.82 206.92 418.17 208.19C418.05 208.46 418 208.61 418 208.65L409.37 233.91V234.43C409.37 235.43 409.89 236.33 410.92 237.13C413.26 238.93 416.41 239.83 420.36 239.83H421.86C422.17 239.83 422.32 239.98 422.32 240.29V241.67L422.3 241.69ZM439.34 199.92C440.03 199.92 440.38 199.63 440.38 199.06C440.38 198.75 440.3 198.41 440.15 198.02L431.58 174.43C431.2 173.39 430.91 172.88 430.72 172.88C430.53 172.88 430.22 173.42 429.8 174.49L421.74 198.02C421.59 198.4 421.51 198.82 421.51 199.26C421.51 199.7 421.8 199.92 422.37 199.92H439.34Z" fill="#6C96BC"/>
<path d="M504.36 239.85C504.59 239.85 504.71 240 504.71 240.31V241.69C504.71 242 504.59 242.15 504.36 242.15H477.49C477.18 242.15 477.03 242 477.03 241.69V240.31C477.03 240 477.18 239.85 477.49 239.85C483.78 239.85 487.19 237.15 487.73 231.74C487.88 230.17 488.05 227.55 488.22 223.89C488.39 220.23 488.9 212.34 489.74 200.24C490.58 188.14 491.01 178.35 491.01 170.87V168.74C491.01 167.21 490.14 165.92 488.39 164.88C486.64 163.84 485.37 163.33 484.56 163.33C483.75 163.33 483.35 163.18 483.35 162.87V161.49C483.35 161.18 483.5 161.03 483.81 161.03H500.44C501.17 161.15 501.76 161.57 502.22 162.3L529.21 222.43C529.4 222.7 529.56 222.93 529.67 223.12C529.78 223.31 530.071 223.4 530.531 223.38C530.991 223.36 531.34 223.03 531.57 222.37L558.271 163.33C559.081 161.8 559.8 161.03 560.46 161.03H577.2C577.51 161.03 577.66 161.18 577.66 161.49V162.87C577.66 163.18 577.57 163.33 577.37 163.33C576.22 163.33 574.8 163.71 573.11 164.48C570.54 165.63 569.25 167.34 569.25 169.6L572.7 233.18C572.78 235.17 573.81 236.78 575.81 238.01C577.8 239.24 580.411 239.85 583.641 239.85C583.951 239.85 584.1 240 584.1 240.31V241.69C584.1 242 583.951 242.15 583.641 242.15H550.96C550.65 242.15 550.5 242 550.5 241.69V240.31C550.5 240 550.65 239.85 550.96 239.85C557.83 239.85 561.26 238.18 561.26 234.84L558.21 179.89C558.17 179.51 558.071 179.31 557.891 179.31C557.711 179.31 557.57 179.48 557.46 179.83L528.86 241.74C528.71 242.01 528.26 242.14 527.54 242.14C526.82 242.14 526.391 241.99 526.271 241.68L498.07 179.65C497.84 179.11 497.62 178.84 497.41 178.84C497.2 178.84 497.09 179.26 497.09 180.11C497.09 181.87 496.63 190.2 495.71 205.08C494.79 219.96 494.33 229.25 494.33 232.93V235.29C494.79 237.48 496.96 238.89 500.83 239.55C501.94 239.74 503.11 239.84 504.34 239.84L504.36 239.85Z" fill="#6C96BC"/>
<path d="M617.141 241.69C617.141 242 616.99 242.15 616.68 242.15H587.281C586.971 242.15 586.82 242 586.82 241.69V240.31C586.82 240 587.07 239.85 587.57 239.85C592.83 239.62 596.37 236.82 598.22 231.45L621.7 163.49C621.74 163.41 621.76 163.32 621.76 163.2L621.13 161.3C621.13 161.11 621.21 161.01 621.36 161.01H632.87C632.95 161.05 633.05 161.09 633.19 161.13C633.33 161.17 633.43 161.28 633.51 161.48L657.85 229.78C658.39 230.82 658.821 231.76 659.141 232.6C659.461 233.44 659.84 234.21 660.26 234.9C661.18 236.47 662.7 237.68 664.81 238.53C666.57 239.41 668.181 239.85 669.641 239.85C669.951 239.85 670.1 240.02 670.1 240.37V241.69C670.1 242 669.951 242.15 669.641 242.15H634.42C634.11 242.15 633.96 242 633.96 241.69V240.31C633.96 240 634.67 239.81 636.09 239.73C637.51 239.65 638.68 239.58 639.6 239.5C644.93 238.92 647.6 237.12 647.6 234.09C647.6 233.86 647.56 233.59 647.48 233.28L638.79 208.77C638.75 208.69 638.67 208.52 638.56 208.25C638.1 206.95 637.291 206.29 636.141 206.29H615.71C614.56 206.29 613.66 206.92 613.01 208.19C612.89 208.46 612.84 208.61 612.84 208.65L604.21 233.91V234.43C604.21 235.43 604.73 236.33 605.76 237.13C608.1 238.93 611.25 239.83 615.2 239.83H616.7C617.01 239.83 617.16 239.98 617.16 240.29V241.67L617.141 241.69ZM634.17 199.92C634.86 199.92 635.21 199.63 635.21 199.06C635.21 198.75 635.13 198.41 634.98 198.02L626.41 174.43C626.03 173.39 625.74 172.88 625.55 172.88C625.36 172.88 625.05 173.42 624.63 174.49L616.57 198.02C616.42 198.4 616.34 198.82 616.34 199.26C616.34 199.7 616.63 199.92 617.2 199.92H634.17Z" fill="#6C96BC"/>
<path d="M673.36 242.15C673.05 242.15 672.901 241.77 672.901 241V240.31C672.901 240 673.05 239.85 673.36 239.85C673.59 239.85 673.96 239.81 674.45 239.73C674.94 239.65 675.47 239.58 676 239.5C676.53 239.42 677.04 239.34 677.5 239.24C677.96 239.14 678.29 239.08 678.48 239.04C682.39 238.16 684.35 235.93 684.35 232.37V171.61C684.35 168.31 683.03 165.97 680.38 164.59C678.81 163.75 677.12 163.32 675.32 163.32H673.13C672.82 163.32 672.67 163.17 672.67 162.86V161.48C672.67 161.17 672.9 161.02 673.36 161.02L704.95 160.16H710.76C717.55 160.62 723.24 163.09 727.82 167.55C732.4 172.02 734.7 177.53 734.7 184.06C734.7 190.59 731.981 195.69 726.531 199.34C724.841 200.45 723.02 201.45 721.06 202.33L738.49 230.81C741.52 235.8 745.59 239.31 750.69 241.34C751.11 241.46 751.32 241.72 751.32 242.15C751.32 243.11 750.69 243.59 749.42 243.59C740.79 243.59 733.92 240.31 728.82 233.75C727.71 232.29 726.6 230.66 725.48 228.86L710.58 205.5L696.891 204.87H696.43C695.85 204.87 695.57 205.14 695.57 205.68V232.21C695.57 234.32 696.17 235.89 697.35 236.93C698.54 237.97 700.59 238.68 703.51 239.06C704.28 239.18 705.22 239.34 706.33 239.55C707.44 239.76 708.2 239.87 708.6 239.87C709 239.87 709.2 240.02 709.2 240.33V241.71C709.2 242.02 709.05 242.17 708.74 242.17H673.35L673.36 242.15ZM700.23 163.18C699.77 163.2 699.28 163.22 698.76 163.24C698.24 163.26 697.581 163.28 696.771 163.3C695.961 163.32 695.56 163.64 695.56 164.25V199.12L695.68 200.85C695.8 201.66 696.161 202.08 696.771 202.12L702.641 202.47C713.421 202.47 719.921 198.64 722.151 190.96C722.881 188.54 723.24 185.78 723.24 182.67C723.24 176.61 721.35 171.83 717.57 168.34C713.79 164.85 708.97 163.1 703.1 163.1C702.56 163.1 702.06 163.1 701.6 163.13C701.14 163.16 700.68 163.17 700.22 163.19L700.23 163.18Z" fill="#6C96BC"/>
<path d="M766.521 170.22C766.521 165.62 763.87 163.32 758.58 163.32C757.74 163.32 757.31 163.17 757.31 162.86V161.48C757.31 161.17 757.461 161.02 757.771 161.02H786.6C786.91 161.02 787.06 161.17 787.06 161.48V162.86C787.06 163.17 786.221 163.32 784.531 163.32C782.841 163.32 781.29 163.86 779.87 164.93C778.45 166 777.74 168.21 777.74 171.55V232.95C777.74 237.55 780.41 239.85 785.74 239.85C786.55 239.85 786.95 240 786.95 240.31V241.69C786.95 242 786.8 242.15 786.49 242.15H757.66C757.35 242.15 757.2 242 757.2 241.69V240.31C757.2 240 758.04 239.85 759.73 239.85C761.42 239.85 762.971 239.31 764.391 238.24C765.811 237.17 766.521 234.96 766.521 231.62V170.22Z" fill="#6C96BC"/>
<path d="M147.13 85.96L147.02 86.37L146.91 85.96C146.97 85.87 147.02 85.76 147.02 85.7C147.02 85.76 147.08 85.87 147.13 85.96Z" fill="#6C96BC"/>
<path d="M234.96 153.38C231.95 141.91 229.33 132.16 227.14 124.15C224.92 116.09 223.09 109.37 221.66 103.88C220.16 98.39 218.97 93.98 218.15 90.72C217.25 87.41 216.62 84.88 216.07 83C215.57 81.17 215.23 79.83 215.04 78.95C214.83 78.05 214.64 77.31 214.49 76.66C214.35 75.97 214.15 75.28 213.96 74.49C213.75 73.7 213.41 72.4599 212.91 70.6799H197.01C193.26 84.5299 189.59 98.08 186.02 111.29C184.49 116.87 182.9 122.76 181.28 128.84C180.09 133.37 178.89 137.87 177.66 142.34L170.82 117.02C170.18 114.78 169.58 112.56 168.99 110.34C168.7 109.25 168.39 108.12 168.09 107.03L158.31 70.67H140.4L130.62 107.03C130.31 108.12 130.02 109.25 129.72 110.34C129.12 112.56 128.53 114.78 127.89 117.02L121.09 142.18C119.9 137.75 118.71 133.31 117.54 128.83C115.9 122.75 114.32 116.86 112.79 111.28C109.22 98.07 105.57 84.51 101.82 70.67H85.91C85.41 72.44 85.07 73.68 84.88 74.48C84.67 75.27 84.48 75.96 84.33 76.65C84.19 77.3 83.99 78.0499 83.8 78.9399C83.59 79.8199 83.25 81.16 82.75 82.99C82.22 84.87 81.56 87.4 80.68 90.71C79.84 93.97 78.65 98.37 77.17 103.87C75.74 109.36 73.9 116.08 71.68 124.14C69.51 132.15 66.89 141.9 63.86 153.37C62.93 159.05 62.83 164.89 63.48 170.73C63.96 175.23 64.91 179.63 66.24 183.89C66.64 185.18 67.03 186.4 67.53 187.7C69.56 193.14 72.18 198.29 75.44 203.08C78.71 207.89 82.47 212.09 86.77 215.74C91.13 219.41 95.92 222.32 101.17 224.51C106.46 226.63 112.09 227.87 118.08 228.16C125.69 228.4 133.01 227.47 139.94 225.25C143.26 224.18 146.42 222.92 149.43 221.44C152.43 222.92 155.6 224.18 158.9 225.25C165.82 227.47 173.14 228.4 180.77 228.16C186.75 227.87 192.4 226.63 197.68 224.51C202.92 222.32 207.72 219.41 212.06 215.74C216.37 212.09 220.12 207.89 223.39 203.08C226.66 198.29 229.28 193.14 231.3 187.7C231.8 186.41 232.2 185.19 232.59 183.89C233.93 179.64 234.86 175.23 235.36 170.73C236 164.89 235.91 159.05 234.96 153.37V153.38ZM135.36 144.98L138.58 133.3C139.67 129.41 140.75 125.45 141.84 121.43C142.94 117.47 144.03 113.52 145.01 109.72L148.02 98.59L149.36 93.61L149.26 93.23C149.31 93.14 149.36 93.04 149.36 92.99C149.36 93.04 149.41 93.15 149.46 93.23L149.36 93.61L150.69 98.59L153.72 109.72C154.7 113.53 155.79 117.47 156.87 121.43C157.97 125.44 159.06 129.4 160.14 133.3L163.36 144.98C163.81 146.6 164.24 148.2 164.69 149.79H134.03C134.48 148.21 134.91 146.6 135.36 144.98ZM134.98 222.14C129.78 224.52 124.15 225.65 118.07 225.65C113.21 225.65 108.67 224.51 104.51 222.27C100.36 220 96.59 216.93 93.33 213.12C90.02 209.26 87.15 204.87 84.72 199.82C82.26 194.77 80.41 189.52 79.14 184.04C77.9 178.55 77.21 173 77.16 167.42C77.11 162.18 77.66 157.22 78.85 152.52C78.92 152.19 79.01 151.87 79.09 151.54C79.23 150.92 79.38 150.33 79.52 149.77C79.64 149.39 79.73 149.01 79.83 148.63L80.86 144.77L81.12 143.82C81.52 142.44 81.86 141.05 82.26 139.62C82.55 138.72 82.79 137.74 83.05 136.74C83.34 135.76 83.64 134.78 83.88 133.67C84.43 131.55 85.12 128.93 85.91 125.76C86.75 122.64 87.74 118.89 88.98 114.48C90.22 110.12 91.65 104.78 93.39 98.51C93.41 98.51 93.65 97.6099 93.89 96.7999L94.36 98.5599L108.31 149.74L109.07 152.5L115.77 177.1L117.7 184.08C119.23 190.25 121.92 196.08 125.81 201.58C129.72 207.13 134.47 211.86 140.05 215.88C140.93 216.5 141.81 217.1 142.72 217.67C140.27 219.39 137.69 220.87 134.99 222.11L134.98 222.14ZM138.71 197.85C136.28 193.54 134.3 188.95 132.68 184.11C132.18 182.58 131.68 180.99 131.23 179.41C131.02 178.63 130.8 177.84 130.59 177.03C129.29 172.23 129.3 167.16 130.57 162.35C130.57 162.34 130.57 162.33 130.57 162.32C131.83 157.7 131.9 157.51 133.26 152.54H165.43C166.79 157.52 166.86 157.71 168.12 162.32C168.12 162.36 168.14 162.4 168.15 162.45C169.45 167.27 169.45 172.35 168.15 177.17C167.95 177.93 167.74 178.67 167.55 179.41C167.1 180.99 166.62 182.58 166.12 184.11C164.48 188.95 162.5 193.55 160.09 197.85C157.06 203.28 153.46 208.06 149.39 212.09C145.31 208.06 141.73 203.27 138.69 197.85H138.71ZM205.44 98.54C207.16 104.81 208.59 110.15 209.83 114.51C211.07 118.92 212.05 122.67 212.9 125.79C213.69 128.96 214.38 131.58 214.93 133.7C215.17 134.8 215.48 135.78 215.77 136.77C216.01 137.77 216.27 138.75 216.56 139.65C216.96 141.08 217.3 142.47 217.7 143.85L217.94 144.8L218.97 148.66C219.23 149.59 219.47 150.54 219.73 151.57C220.01 152.62 220.25 153.67 220.45 154.74C221.29 158.79 221.69 163.02 221.66 167.45C221.61 173.03 220.9 178.58 219.68 184.07C218.39 189.55 216.56 194.8 214.08 199.85C211.65 204.9 208.79 209.29 205.49 213.15C202.22 216.96 198.46 220.02 194.31 222.3C190.14 224.54 185.59 225.68 180.75 225.68C174.67 225.68 169.02 224.54 163.84 222.17C161.12 220.93 158.54 219.45 156.11 217.74C157.01 217.15 157.9 216.55 158.76 215.93C164.36 211.92 169.09 207.18 173 201.63C176.91 196.14 179.58 190.3 181.11 184.13L183.04 177.15L189.74 152.55L190.5 149.79L204.45 98.61L204.9 96.97" fill="#6C96BC"/>
<path d="M147.13 85.96L147.02 86.37L146.91 85.96C146.97 85.87 147.02 85.76 147.02 85.7C147.02 85.76 147.08 85.87 147.13 85.96Z" fill="#6C96BC"/>
<path d="M231.53 21.21L277.7 67.38V231.53L231.53 277.69H67.38L21.21 231.53V67.38L67.38 21.21H231.53ZM235.34 12H63.56C43.42 32.14 32.14 43.4199 12 63.5599V235.34C32.14 255.48 43.42 266.76 63.56 286.9H235.34C255.48 266.76 266.76 255.48 286.9 235.34V63.5599C266.76 43.4199 255.48 32.14 235.34 12Z" fill="#6C96BC"/>
<path d="M240.28 298.9H58.63L0 240.28V58.63L58.63 0H240.28L298.91 58.63V240.28L240.28 298.9ZM59.39 297.06H239.52L297.07 239.52V59.39L239.52 1.83997H59.39L1.84 59.39V239.52L59.39 297.06Z" fill="#6C96BC"/>
</svg>
