<svg width="462" height="358" viewBox="0 0 462 358" fill="none" xmlns="http://www.w3.org/2000/svg">
<path fill-rule="evenodd" clip-rule="evenodd" d="M37.843 21.364L176.163 159.744C206.331 189.854 255.645 189.88 285.838 159.744L424.158 21.364C425.551 19.971 425.348 17.677 423.732 16.55C409.624 6.711 392.459 0.877991 373.969 0.877991H88.033C69.542 0.877991 52.377 6.712 38.269 16.55C36.653 17.677 36.45 19.971 37.843 21.364ZM0.879028 88.031C0.879028 73.491 4.48403 59.753 10.834 47.678C11.827 45.789 14.344 45.407 15.853 46.916L152.422 183.485C195.669 226.795 266.307 226.82 309.58 183.485L446.149 46.916C447.658 45.407 450.175 45.789 451.168 47.678C457.517 59.753 461.123 73.492 461.123 88.031V269.968C461.123 318.061 422.002 357.122 373.969 357.122H88.033C40.001 357.122 0.879028 318.061 0.879028 269.968V88.031Z" fill="white"/>
</svg>
