<svg width="182" height="54" viewBox="0 0 182 54" fill="none" xmlns="http://www.w3.org/2000/svg">
<g clip-path="url(#clip0_89_2)">
<path d="M45.293 4.59591L3.41492 25.3362C1.84547 26.1114 0 24.9761 0 23.2379V16.4811C0 14.6881 1.01738 13.0518 2.63414 12.2453L24.4249 1.44846C26.3493 0.493258 28.4708 0 30.6238 0H44.2046C46.7836 0 47.6038 3.45281 45.293 4.59591Z" fill="#B4E43B"/>
<path d="M51.3105 17.2406L3.51744 31.5685C1.42748 32.1949 0 34.1131 0 36.2819V49.3728C0 51.565 2.32656 52.9978 4.30611 52.0192L50.8136 28.9926C53.1165 27.8495 54.5755 25.5163 54.5755 22.9561V19.6599C54.5755 17.9687 52.9351 16.763 51.3026 17.2484L51.3105 17.2406Z" fill="#B4E43B"/>
<path d="M46.4287 54C50.8584 54 54.4494 50.435 54.4494 46.0374C54.4494 41.6398 50.8584 38.0748 46.4287 38.0748C41.999 38.0748 38.408 41.6398 38.408 46.0374C38.408 50.435 41.999 54 46.4287 54Z" fill="#B4E43B"/>
<path d="M98.5198 8.40881H108.481V44.7925H98.7801V26.8551H98.6224L92.4787 38.2313H86.2325L80.0888 26.8003H79.931V38.2392H70.2305V8.40881H80.144L89.2767 26.3932H89.4818L98.512 8.40881H98.5198Z" fill="#B4E43B"/>
<path d="M137.046 44.7925L135.185 38.889H123.394L121.533 44.7925H111.241L124.577 8.354H133.986L147.275 44.7925H137.038H137.046ZM125.934 30.7307H132.653L129.341 20.2079H129.238L125.926 30.7307H125.934Z" fill="#B4E43B"/>
<path d="M163.506 8.23657C153.285 8.23657 145.011 16.4575 145.011 26.5967C145.011 36.7359 153.292 44.9569 163.506 44.9569C173.719 44.9569 182 36.7359 182 26.5967C182 16.4575 173.719 8.23657 163.506 8.23657ZM163.506 35.8042C158.387 35.8042 154.231 31.6859 154.231 26.5967C154.231 21.5076 158.379 17.3971 163.506 17.3971C168.632 17.3971 172.772 21.5154 172.772 26.5967C172.772 31.6781 168.624 35.8042 163.506 35.8042Z" fill="#B4E43B"/>
</g>
<defs>
<clipPath id="clip0_89_2">
<rect width="182" height="54" fill="white"/>
</clipPath>
</defs>
</svg>
