<svg width="214" height="85" viewBox="0 0 214 85" fill="none" xmlns="http://www.w3.org/2000/svg">
<g filter="url(#filter0_d_73_76)">
<path d="M39.3922 0.841394V36.164H25.2014L17.6896 20.1843V36.159H4.33398V0.836371H18.5248L26.0366 16.8161V0.836371L39.3922 0.841394Z" fill="white"/>
<path d="M80.7124 18.5015C80.7124 28.6992 72.1037 37.003 61.5104 37.003C50.9172 37.003 42.3084 28.6992 42.3084 18.5015C42.3084 8.30383 50.9122 0 61.5079 0C72.1037 0 80.7099 8.30634 80.7099 18.5015H80.7124ZM67.3543 18.5015C67.3543 14.2968 64.7465 10.9336 61.5104 10.9336C58.2744 10.9336 55.6666 14.2968 55.6666 18.5015C55.6666 22.7062 58.2744 26.0694 61.5104 26.0694C64.7465 26.0694 67.3543 22.7062 67.3543 18.5015Z" fill="white"/>
<path d="M36.7321 77L36.0539 61.0203L31.8805 77H21.8631L17.5326 61.0203L16.8544 77H4.33398L6.83708 41.6774H21.0279L26.8718 61.0178L33.5509 41.6774H46.7519L49.2575 77H36.7321Z" fill="white"/>
<path d="M89.7357 77H76.38L74.9714 72.7953H64.4305L63.0219 77H49.6662L63.5953 41.6774H75.8041L89.7332 77H89.7357ZM71.6855 62.7007L69.7035 56.7101L67.7214 62.7007H71.688H71.6855Z" fill="white"/>
<path d="M115.612 41.6774H85.5627V51.7695H93.9072V76.9975H107.265V51.7695H120.16V76.9975H133.515V51.7695H141.86V41.6774H115.61H115.612Z" fill="white"/>
<path d="M159.582 55.1328H167.927V63.5396H159.582V66.9053H170.435V76.9975H146.227V41.6774H170.435V51.767H159.582V55.1328Z" fill="white"/>
<path d="M209.667 77H194.641L187.964 66.9078V77H174.609V41.6774H195.478C202.94 41.6774 207.164 47.4594 207.164 54.2913C207.164 59.1792 204.977 63.4918 201.006 65.5917L209.667 76.9975V77ZM193.806 54.7133C193.806 52.1388 192.295 50.9281 190.467 50.9281H187.964V58.496H190.467C192.295 58.491 193.808 57.3381 193.808 54.7108L193.806 54.7133Z" fill="white"/>
</g>
<defs>
<filter id="filter0_d_73_76" x="0.333984" y="0" width="213.332" height="85" filterUnits="userSpaceOnUse" color-interpolation-filters="sRGB">
<feFlood flood-opacity="0" result="BackgroundImageFix"/>
<feColorMatrix in="SourceAlpha" type="matrix" values="0 0 0 0 0 0 0 0 0 0 0 0 0 0 0 0 0 0 127 0" result="hardAlpha"/>
<feOffset dy="4"/>
<feGaussianBlur stdDeviation="2"/>
<feComposite in2="hardAlpha" operator="out"/>
<feColorMatrix type="matrix" values="0 0 0 0 0 0 0 0 0 0 0 0 0 0 0 0 0 0 0.25 0"/>
<feBlend mode="normal" in2="BackgroundImageFix" result="effect1_dropShadow_73_76"/>
<feBlend mode="normal" in="SourceGraphic" in2="effect1_dropShadow_73_76" result="shape"/>
</filter>
</defs>
</svg>
