<svg width="25" height="26" viewBox="0 0 25 26" fill="none" xmlns="http://www.w3.org/2000/svg">
<path d="M25.008 12.6721C25.008 13.3806 24.7198 14.0246 24.2555 14.489C23.7894 14.9534 23.147 15.2416 22.4369 15.2416H16.0117C15.5558 15.2416 15.1846 15.611 15.1846 16.0687V22.4159C15.1846 23.804 14.1168 25.0023 12.7304 25.0633C11.2576 25.1277 10.0441 23.9532 10.0441 22.4956V16.0687C10.0441 15.6127 9.67461 15.2416 9.217 15.2416H2.87146C1.48338 15.2416 0.285114 14.1755 0.224099 12.7891C0.157999 11.3163 1.33084 10.1027 2.79011 10.1027H9.21531C9.67122 10.1027 10.0424 9.73325 10.0424 9.27564V2.84871C10.0424 1.43011 11.1932 0.279297 12.6135 0.279297C13.3236 0.279297 13.9643 0.567424 14.4304 1.03182C14.8948 1.49621 15.1829 2.14026 15.1829 2.84871V9.27564C15.1829 9.73156 15.5524 10.1027 16.01 10.1027H22.4352C23.8555 10.1027 25.0063 11.2535 25.0063 12.6721H25.008Z" fill="white" fill-opacity="0.66" style="mix-blend-mode:plus-lighter"/>
</svg>
