<?xml version="1.0" encoding="UTF-8"?><svg id="Layer_2" xmlns="http://www.w3.org/2000/svg" viewBox="0 0 800.69 268.7"><defs><style>.cls-1{fill:#fff;}</style></defs><g id="Layer_1-2"><path class="cls-1" d="M453.97,113.11c0-21.51-15.46-41.06-44.79-41.23-19.73,0-39.46-.18-59.19-.18v124.59h23.46v-41.59h22.57l36.26,41.59h27.9v-1.6l-37.68-42.48c23.64-4.8,31.46-22.04,31.46-39.1ZM373.45,133.55v-39.81h35.73c14.75,0,21.33,9.95,21.33,19.91s-6.4,19.91-21.33,19.91h-35.73Z"/><path class="cls-1" d="M678.3,72.59v-.71h-29.15l-47.28,52.61v-52.61h-23.46v101.31h-85.69v-28.08h67.36v-21.86h-67.36v-28.62h51.1v-22.75h-74.38v124.42h132.44v-55.1l52.08,55.1h28.97v-1.42l-59.9-62.74,55.28-59.54Z"/><rect class="cls-1" x="692.49" y="115.87" width="23.28" height="80.42"/><path class="cls-1" d="M692.49,71.88v21.33h45.28v103.09h23.46v-103.09h39.46v-21.33h-108.2Z"/><path class="cls-1" d="M271.92,135.96c0,64.45-44.85,118.42-105.03,132.41-6.72,1.56-13.45-2.57-15.1-9.27-.25-1.01-.37-2.02-.37-3.01,0-5.74,3.96-10.92,9.83-12.3,48.93-11.46,85.48-55.46,85.48-107.83,0-60.87-49.33-110.42-110.1-110.77-61.02-.35-111.43,49.75-111.43,110.77,0,32.23,13.84,61.27,35.89,81.53,6.72,6.17,14.19,11.52,22.27,15.9,2.51,1.36,5.56-.5,5.56-3.35v-74.57c0-40.27,32.64-72.91,72.91-72.91h13.66c7.07,0,12.78,5.81,12.6,12.95-.2,6.9-6.22,12.24-13.12,12.24h-13.15c-26.35,0-47.7,21.36-47.7,47.7v75.16c0,15.72-12.5,28.99-28.22,29.04-3.83.01-7.5-.73-10.82-2.12-1.65-.81-3.26-1.66-4.87-2.57h-.02C26.94,231.02-1.89,184.19.1,130.81,2.67,60.95,58.78,3.87,128.59.2c78.42-4.15,143.33,58.23,143.33,135.77Z"/></g></svg>