<svg width="572" height="192" viewBox="0 0 572 192" fill="none" xmlns="http://www.w3.org/2000/svg">
<path d="M202.353 54.4861C200.658 52.6558 198.707 50.8869 196.389 49.0771L193.314 46.6948C189.035 43.3308 185.951 42.0527 181.957 40.3962C166.934 34.1693 150.194 35.0282 137.111 42.7275L87.1079 75.2732L148.07 114.833L121.373 131.939C114.734 136.203 106.145 136.223 99.4862 132.001L41.3837 95.2116L57.0404 85.1811L128.206 39.0057L78.1305 6.41909C65.1088 -1.23931 48.3694 -2.0982 33.3459 4.12873L33.1314 4.22075C29.2811 5.82605 26.2376 7.09393 21.9991 10.417L18.9352 12.8096C16.6576 14.5785 14.7171 16.3474 12.9707 18.2186C4.30995 27.6356 0.173623 39.6601 1.88943 50.3757C3.30906 59.2611 8.59947 66.6945 16.77 71.3162L22.0502 74.6392L39.2797 63.6066L25.9822 55.2529C22.6221 53.3716 20.7123 50.8051 20.1607 47.4309C19.3335 42.2674 21.7336 36.0405 26.5746 30.7747C27.5551 29.7113 28.7398 28.6479 30.3228 27.4005L33.3868 24.9976C35.6847 23.1981 36.849 22.7277 40.2806 21.3065L40.444 21.2349C50.0648 17.237 60.6048 17.6357 68.5608 22.2574L94.2367 38.975L46.9907 69.6188L6.90408 95.3139L30.8437 110.467L0 129.997L89.9267 187.624C94.4716 190.538 99.6905 192 104.899 192C110.057 192 115.214 190.569 119.729 187.716L208.409 131.592L168.343 105.907L121.087 75.2527L146.671 58.576C154.709 53.9135 165.249 53.5147 174.89 57.5126L175.135 57.6149C178.526 59.0157 179.659 59.4963 181.937 61.2754L185.021 63.6782C186.615 64.9256 187.799 65.989 188.759 67.0422C193.611 72.308 196.011 78.5349 195.173 83.6985L195.132 83.9643C194.53 87.2158 192.64 89.6902 189.27 91.5818L176.064 99.8844L193.274 110.917L198.533 107.614C203.17 105.007 206.847 101.531 209.482 97.277C210.329 95.9171 211.055 94.5061 211.637 93.0849C212.484 91.0092 213.087 88.8416 213.434 86.6432C215.17 75.948 211.044 63.9236 202.373 54.4759L202.353 54.4861ZM125.397 151.346L165.167 125.855L173.93 131.489L115.817 168.258C109.168 172.481 100.579 172.46 93.9303 168.197L34.4694 130.089L48.1652 121.418L95.5746 151.438C104.644 157.184 116.358 157.144 125.387 151.346H125.397Z" fill="white"/>
<path d="M323.073 84.1689C316.506 79.2406 308.979 77.5944 300.624 77.5944C294.057 77.5944 287.623 79.6495 287.623 84.7211C287.623 91.2956 294.057 92.2568 303.494 93.2179C322.521 95.2731 342.365 102.942 342.365 125.007C342.365 147.072 321.837 156.111 300.348 156.244C283.109 156.377 270.781 153.371 257.515 139.393L272.436 122.267C281.883 131.449 292.413 133.095 300.491 133.095C309.387 133.095 315.546 129.946 315.546 124.598C315.546 119.803 310.071 116.786 299.531 115.825C278.594 113.903 260.527 108.565 260.527 84.7211C260.527 64.4452 280.372 55.6723 300.624 55.6723C314.994 55.6723 326.218 58.9647 336.483 67.0423L323.073 84.1689Z" fill="white"/>
<path d="M404.224 57.5839C423.384 57.5839 438.99 66.0808 438.99 84.4446C438.99 91.7042 436.804 99.2399 428.45 103.074C437.345 107.87 441.727 116.776 441.727 125.405C441.727 146.918 422.158 153.36 404.633 153.493H355.221V57.5839H404.224ZM381.919 94.1684H403.54C409.147 94.1684 412.16 91.2952 412.16 87.0417C412.16 82.7882 409.147 79.506 403.816 79.506H381.919V94.1684ZM381.919 132.399H404.776C411.618 132.399 414.907 128.698 414.907 123.36C414.907 118.023 411.486 114.178 404.776 114.178H381.919V132.399Z" fill="white"/>
<path d="M542.043 141.029C531.227 151.714 518.093 155.968 503.58 155.968C465.945 155.968 451.299 132.266 451.166 106.234C451.033 81.5716 467.589 55.396 503.58 55.396C517.398 55.396 529.858 60.1915 540.674 70.7435L523.976 87.1851C517.133 80.6105 510.014 78.8314 503.58 78.8314C485.104 78.8314 477.853 93.9028 477.986 106.377C478.119 118.841 484.696 132.962 503.58 132.962C510.014 132.962 519.319 130.221 526.161 123.238L542.032 141.05L542.043 141.029Z" fill="white"/>
<path d="M557.39 56.849C558.84 56.0003 560.464 55.5811 562.251 55.5811C564.039 55.5811 565.724 56.0003 567.194 56.8286C568.665 57.6568 569.829 58.8019 570.677 60.2641C571.525 61.7263 571.944 63.3418 571.944 65.1413C571.944 66.9409 571.525 68.5564 570.677 70.0186C569.829 71.4808 568.665 72.6157 567.194 73.4541C565.724 74.2824 564.079 74.7016 562.251 74.7016C560.423 74.7016 558.84 74.2824 557.39 73.4541C555.929 72.6259 554.785 71.4808 553.938 70.0186C553.09 68.5564 552.661 66.9511 552.661 65.1925C552.661 63.4338 553.09 61.7774 553.938 60.3152C554.785 58.8531 555.929 57.7079 557.39 56.8592V56.849ZM566.469 57.9533C565.223 57.2375 563.814 56.8694 562.251 56.8694C560.689 56.8694 559.33 57.2273 558.084 57.9533C556.838 58.6792 555.858 59.6608 555.133 60.9287C554.408 62.1966 554.05 63.6076 554.05 65.1823C554.05 66.7569 554.408 68.1066 555.133 69.3642C555.848 70.6116 556.838 71.5932 558.084 72.3192C559.33 73.0452 560.719 73.403 562.251 73.403C563.783 73.403 565.223 73.0452 566.469 72.3192C567.715 71.6035 568.696 70.6116 569.421 69.3438C570.146 68.0861 570.503 66.6751 570.503 65.1413C570.503 63.6076 570.146 62.2068 569.421 60.9389C568.706 59.6711 567.715 58.6792 566.469 57.9635V57.9533ZM565.489 60.5708C566.173 61.1741 566.52 61.9614 566.52 62.9226C566.52 63.7201 566.285 64.3949 565.805 64.9369C565.325 65.4788 564.672 65.8366 563.844 65.99L566.582 70.6014H564.999L562.456 66.2354H560.107V70.6014H558.718V59.6608H562.742C563.896 59.6608 564.815 59.9676 565.499 60.5708H565.489ZM562.68 65.0289C563.385 65.0289 563.957 64.8448 564.406 64.4767C564.856 64.1086 565.08 63.5872 565.08 62.9123C565.08 62.2375 564.856 61.7671 564.406 61.3991C563.957 61.031 563.385 60.8469 562.68 60.8469H560.096V65.0289H562.68Z" fill="white"/>
</svg>
