<svg width="372" height="379" viewBox="0 0 372 379" fill="none" xmlns="http://www.w3.org/2000/svg">
<path d="M340.06 182.297C328.31 171.571 318.581 164.218 305.686 159.692V134.005C306.245 133.945 306.813 133.885 307.381 133.791C314.039 132.673 316.576 129.18 317.54 126.439C318.331 124.176 318.245 121.793 317.677 119.487C328.215 123.176 338.4 127.233 346.417 130.973C347.131 131.306 347.888 131.46 348.628 131.46C350.589 131.46 352.465 130.358 353.359 128.48C354.581 125.892 353.462 122.801 350.856 121.588C339.191 116.148 323.148 110.077 307.94 105.329C307.888 105.311 307.828 105.303 307.776 105.286C307.699 105.26 307.613 105.243 307.535 105.226C307.441 105.209 307.346 105.183 307.252 105.175C307.183 105.166 307.114 105.149 307.045 105.141C306.942 105.124 306.839 105.115 306.735 105.115C306.675 105.115 306.606 105.115 306.546 105.107C306.443 105.107 306.331 105.107 306.228 105.107C306.168 105.107 306.099 105.107 306.039 105.115C305.935 105.115 305.841 105.132 305.738 105.141C305.669 105.149 305.591 105.158 305.523 105.175C305.437 105.192 305.351 105.209 305.264 105.226C305.178 105.243 305.092 105.269 305.015 105.286C304.946 105.303 304.869 105.329 304.8 105.346C304.705 105.371 304.611 105.405 304.525 105.44C304.464 105.465 304.404 105.491 304.344 105.516C304.249 105.559 304.155 105.602 304.06 105.645C304 105.67 303.94 105.704 303.88 105.738C303.794 105.79 303.708 105.832 303.621 105.884C303.553 105.926 303.492 105.969 303.424 106.012C303.355 106.063 303.277 106.114 303.209 106.165C303.131 106.225 303.062 106.285 302.985 106.345C302.951 106.379 302.907 106.405 302.873 106.439C302.856 106.456 302.839 106.473 302.821 106.49C302.744 106.558 302.667 106.635 302.598 106.712C302.555 106.763 302.503 106.806 302.46 106.857C302.391 106.934 302.331 107.019 302.262 107.096C302.219 107.147 302.176 107.207 302.133 107.259C302.082 107.335 302.03 107.412 301.978 107.489C301.935 107.557 301.892 107.626 301.849 107.694C301.806 107.762 301.772 107.839 301.738 107.908C301.695 107.993 301.652 108.07 301.617 108.155C301.591 108.223 301.557 108.292 301.531 108.36C301.497 108.454 301.454 108.548 301.428 108.642C301.428 108.668 301.411 108.693 301.402 108.719C301.385 108.77 301.376 108.813 301.368 108.864C301.342 108.949 301.316 109.043 301.299 109.137C301.282 109.223 301.265 109.308 301.247 109.393C301.23 109.47 301.221 109.547 301.213 109.615C301.196 109.718 301.187 109.812 301.187 109.914C301.187 109.983 301.187 110.042 301.178 110.111C301.178 110.213 301.178 110.316 301.178 110.418C301.178 110.478 301.178 110.546 301.187 110.606C301.187 110.709 301.204 110.811 301.213 110.905C301.213 110.973 301.23 111.042 301.247 111.11C301.265 111.204 301.282 111.289 301.299 111.383C301.316 111.46 301.333 111.537 301.359 111.614C301.376 111.691 301.402 111.767 301.428 111.844C301.454 111.93 301.488 112.015 301.514 112.101C301.54 112.169 301.566 112.237 301.6 112.305C301.634 112.391 301.677 112.476 301.72 112.553C301.755 112.621 301.789 112.69 301.832 112.758C301.875 112.835 301.918 112.912 301.961 112.98C302.013 113.057 302.064 113.134 302.116 113.211C302.159 113.27 302.202 113.33 302.245 113.39C302.314 113.475 302.383 113.561 302.452 113.646C302.477 113.672 302.503 113.706 302.529 113.74C305.677 117.216 308 121.759 307.69 123.04C307.673 122.963 307.062 123.322 305.669 123.552C299.226 124.628 293.092 121.904 290.409 116.78C289.591 115.226 289.204 113.689 289.204 112.066V104.27C289.204 102.297 288.095 100.58 286.452 99.7009C286.047 99.4276 285.574 99.2141 285.024 99.086C255.406 92.1433 223.277 88.3943 190.968 87.993V68.8897C207.742 66.379 220.645 51.9726 220.645 34.637C220.645 15.5337 204.989 0 185.755 0C166.52 0 150.865 15.5422 150.865 34.637C150.865 37.4978 153.204 39.8206 156.086 39.8206C158.968 39.8206 161.308 37.4978 161.308 34.637C161.308 21.2468 172.275 10.3586 185.763 10.3586C199.252 10.3586 210.219 21.2468 210.219 34.637C210.219 48.0272 199.252 58.9153 185.763 58.9153C182.882 58.9153 180.542 61.2381 180.542 64.0989V87.993C147.974 88.3175 116.327 92.0237 86.4 99.0348C86.3054 99.0604 86.2194 99.086 86.1247 99.1116C86.0903 99.1202 86.0559 99.1287 86.0215 99.1458C85.8839 99.1885 85.7548 99.2397 85.6344 99.291C85.6086 99.2995 85.5828 99.3166 85.5484 99.3251C85.4107 99.3849 85.2817 99.4447 85.1527 99.513C85.1355 99.5215 85.1183 99.5301 85.1011 99.5386C84.9634 99.6155 84.8344 99.6923 84.7054 99.7777C84.6968 99.7777 84.6882 99.7948 84.671 99.7948C84.5419 99.8802 84.4215 99.9742 84.3011 100.068C84.2925 100.068 84.2839 100.085 84.2753 100.094C84.1548 100.188 84.043 100.29 83.9398 100.393C83.9226 100.41 83.914 100.418 83.8968 100.435C83.7935 100.538 83.6989 100.64 83.6129 100.751C83.5957 100.777 83.5785 100.794 83.5613 100.82C83.4753 100.922 83.3978 101.025 83.329 101.136C83.3032 101.17 83.286 101.204 83.2602 101.238C83.1914 101.34 83.1312 101.443 83.071 101.545C83.0452 101.588 83.0194 101.631 83.0022 101.674C82.9505 101.776 82.8989 101.879 82.8473 101.981C82.8215 102.032 82.8043 102.075 82.7785 102.126C82.7355 102.229 82.6925 102.34 82.6581 102.451C82.6409 102.502 82.6237 102.545 82.6064 102.596C82.572 102.715 82.5376 102.835 82.5118 102.955C82.5032 102.997 82.4946 103.04 82.486 103.083C82.4602 103.211 82.443 103.347 82.4258 103.475C82.4258 103.51 82.4172 103.552 82.4086 103.586C82.3914 103.723 82.3914 103.86 82.3914 104.005C82.3914 104.03 82.3914 104.056 82.3914 104.082V104.201C82.3914 104.201 82.3914 104.227 82.3914 104.235V111.878C82.3914 113.501 81.9957 115.038 81.1871 116.592C78.5032 121.716 72.3699 124.432 65.9269 123.364C63.9054 122.852 63.9312 122.775 63.9054 122.852C63.8108 121.383 65.9183 117.028 69.0667 113.552C69.0925 113.527 69.1183 113.492 69.1441 113.458C69.2129 113.373 69.2903 113.296 69.3505 113.202C69.3935 113.142 69.4365 113.083 69.4796 113.023C69.5312 112.946 69.5828 112.869 69.6344 112.792C69.6774 112.715 69.7204 112.647 69.7634 112.57C69.7978 112.502 69.8409 112.434 69.8753 112.365C69.9183 112.28 69.9527 112.203 69.9957 112.118C70.0301 112.049 70.0559 111.981 70.0817 111.904C70.1161 111.819 70.1419 111.733 70.1677 111.648C70.1935 111.571 70.2193 111.494 70.2366 111.417C70.2538 111.34 70.2796 111.264 70.2968 111.178C70.314 111.093 70.3312 110.999 70.3484 110.905C70.357 110.837 70.3742 110.768 70.3828 110.7C70.3914 110.598 70.4086 110.504 70.4086 110.401C70.4086 110.341 70.4086 110.273 70.4172 110.213C70.4172 110.111 70.4172 110.008 70.4172 109.906C70.4172 109.837 70.4172 109.778 70.4086 109.709C70.4086 109.615 70.3914 109.513 70.3828 109.419C70.3742 109.342 70.357 109.265 70.3484 109.188C70.3312 109.103 70.314 109.018 70.2968 108.932C70.2796 108.838 70.2538 108.753 70.228 108.659C70.2107 108.608 70.2021 108.565 70.1935 108.514C70.1935 108.488 70.1763 108.463 70.1677 108.446C70.1333 108.352 70.0989 108.258 70.0645 108.164C70.0387 108.095 70.0129 108.027 69.9785 107.959C69.9441 107.873 69.9011 107.788 69.8581 107.711C69.8237 107.643 69.7806 107.566 69.7462 107.498C69.7032 107.429 69.6602 107.361 69.6172 107.293C69.5656 107.216 69.514 107.139 69.4624 107.062C69.4193 107.002 69.3763 106.951 69.3333 106.891C69.2731 106.814 69.2043 106.729 69.1355 106.652C69.0925 106.601 69.0409 106.558 68.9978 106.507C68.9204 106.43 68.8516 106.353 68.7742 106.285C68.757 106.268 68.7398 106.251 68.7226 106.234C68.6882 106.2 68.6452 106.174 68.6107 106.14C68.5419 106.08 68.4645 106.02 68.3871 105.96C68.3183 105.909 68.2495 105.858 68.172 105.807C68.1118 105.764 68.043 105.721 67.9742 105.679C67.8882 105.627 67.8021 105.576 67.7161 105.533C67.6559 105.499 67.5957 105.474 67.5355 105.44C67.4409 105.397 67.3462 105.354 67.2516 105.311C67.1914 105.286 67.1312 105.26 67.071 105.235C66.9763 105.2 66.8903 105.166 66.7957 105.141C66.7269 105.115 66.6495 105.098 66.5806 105.081C66.4946 105.055 66.4086 105.038 66.3312 105.021C66.2452 105.004 66.1591 104.987 66.0731 104.97C66.0043 104.961 65.9269 104.944 65.8581 104.936C65.7548 104.927 65.6602 104.919 65.557 104.91C65.4882 104.91 65.4279 104.91 65.3677 104.902C65.2645 104.902 65.1613 104.902 65.0495 104.902C64.9892 104.902 64.9204 104.902 64.8602 104.91C64.757 104.91 64.6538 104.927 64.5505 104.936C64.4817 104.944 64.4129 104.953 64.3355 104.97C64.2409 104.987 64.1462 105.004 64.0516 105.021C63.9742 105.038 63.8882 105.064 63.8107 105.081C63.7591 105.098 63.6989 105.107 63.6473 105.124C48.4387 109.872 32.3957 115.943 20.7312 121.383C18.1247 122.604 16.9978 125.687 18.228 128.275C19.114 130.153 20.9978 131.255 22.9591 131.255C23.6989 131.255 24.4559 131.101 25.1699 130.768C33.1871 127.028 43.372 122.972 53.9097 119.282C53.3419 121.588 53.2559 123.971 54.0473 126.234C55.0021 128.975 57.5398 132.476 64.2064 133.586C65.1441 133.74 66.0731 133.834 66.9935 133.894V153.954C66.8043 153.954 66.6237 153.954 66.4344 153.954C33.9011 153.954 9.26452 175.465 9.26452 211.024C9.26452 231.263 19.7763 251.468 49.3505 267.113C70.3742 278.215 93.0409 292.553 104.542 304.961C110.787 311.81 114.065 319.299 114.065 330.725C114.065 352.262 96.4129 366.438 73.4022 366.438C42.1935 366.438 22.4 348.992 7.29462 309.53H0L9.52258 378.684H16.757C16.757 371.835 21.0237 367.898 25.9613 367.898C29.5742 367.898 35.1484 368.88 41.3935 371.485C53.5484 376.72 66.3656 379 80.1548 379C118.28 379 150.821 354.542 150.821 317.992C150.821 293.21 131.088 274.303 96.2581 254.064C61.7634 234.175 37.4452 220.469 37.4452 198.292C37.4452 180.367 50.2624 167.301 70.6323 167.301C91.0021 167.301 117.634 178.087 129.144 192.741C135.054 200.572 138.667 209.043 142.615 223.415H150.83L143.596 153.936H136.705C135.381 161.11 120.903 165.012 115.329 165.012C112.034 165.012 106.778 163.714 100.869 161.11C92.1204 157.463 85.2989 155.405 77.3677 154.509V132.476C82.9419 130.504 87.6387 126.652 90.4 121.375C91.9828 118.352 92.7828 115.158 92.7828 111.878V108.215C122.185 101.656 153.247 98.326 185.204 98.326C217.161 98.326 249.015 101.742 278.735 108.463V112.066C278.735 115.346 279.535 118.539 281.118 121.563C284.06 127.173 289.196 131.187 295.243 133.023V156.789C286.116 154.859 275.295 153.945 261.557 153.945H192.129V160.392C216.662 162.109 220.525 165.158 220.525 192.006V339.905C220.525 366.421 217.308 370.828 192.129 372.544V378.991H265.11C297.703 378.991 310.323 373.167 330.34 359.581C359.062 340.204 372 305.917 372 265.448C372 230.426 361.032 201.323 340.06 182.28V182.297ZM303.269 351.69C283.905 365.285 274.202 366.438 268.946 366.438C256.361 366.438 253.454 362.339 253.454 350.435V180.802C253.454 169.59 258.288 166.9 270.563 166.9C275.914 166.9 288.396 169.086 307.449 186.772C327.776 205.456 336.826 232.117 336.826 267.497C336.826 305.917 325.858 335.704 303.269 351.682V351.69Z" fill="white"/>
</svg>
