<svg width="1325" height="706" viewBox="0 0 1325 706" fill="none" xmlns="http://www.w3.org/2000/svg">
<path fill-rule="evenodd" clip-rule="evenodd" d="M1210.46 155.904C1218.59 163.674 1220.89 170.224 1222.3 176.074C1226.52 193.534 1214.15 201.634 1217.51 220.514C1225.84 267.434 1288.38 270.054 1303.86 230.214C1321.09 185.864 1314.09 115.964 1297.33 83.5639C1231.91 -42.8561 1059.25 48.3839 1043.69 165.394C1022.31 326.204 1163.79 377.704 1188.92 476.494C1211.78 554.754 1116.12 581.694 1062.31 559.974C1014.54 549.274 1010.76 486.064 1053.93 505.104C1067.55 511.114 1086.92 532.444 1104.66 532.764C1115.67 532.964 1125.97 528.564 1133.6 515.154C1193.11 410.714 980.767 294.534 924.157 476.174C875.807 631.274 1020.06 697.134 1152.38 681.504C1281.3 667.824 1352.86 520.724 1313.79 413.784C1288.19 322.604 1137.39 242.284 1148.31 182.644C1149.59 175.644 1151.38 166.964 1156.43 160.674C1163.64 151.704 1176.47 145.254 1187.82 146.624C1195.8 147.584 1203.86 149.604 1210.47 155.924L1210.46 155.904Z" fill="white"/>
<path fill-rule="evenodd" clip-rule="evenodd" d="M829.417 308.124C818.617 310.044 813.867 193.774 819.307 161.804C820.167 156.704 834.817 158.274 846.757 162.064C921.707 185.844 891.757 306.044 829.417 308.124ZM689.307 126.334C696.817 294.204 702.817 436.824 703.097 606.744C703.337 752.474 819.647 678.654 826.057 642.364C839.747 552.374 796.257 506.834 889.257 429.244C979.517 353.964 1055.25 207.054 978.507 100.324C942.357 50.0439 871.787 22.4539 813.267 10.7039C691.617 -13.7061 684.287 14.3539 689.307 126.324V126.334Z" fill="white"/>
<path fill-rule="evenodd" clip-rule="evenodd" d="M243.916 452.854C248.596 447.224 313.606 437.004 343.126 396.794C370.906 358.964 367.106 320.054 295.286 319.264C231.556 318.564 251.146 270.054 257.416 217.034C262.876 170.734 273.216 128.574 275.796 81.4339C284.466 -77.0061 170.356 34.6339 144.416 91.7639C125.906 132.534 124.656 182.104 125.416 226.294C126.616 295.674 150.336 324.334 78.7764 283.784C-59.7736 205.264 18.6464 381.104 57.4864 411.824C112.206 455.094 123.436 405.084 123.176 500.254C123.016 555.574 117.926 575.454 132.916 630.364C151.176 697.254 286.026 741.594 327.436 665.584C355.646 613.824 219.746 547.454 243.916 452.844V452.854Z" fill="white"/>
<path fill-rule="evenodd" clip-rule="evenodd" d="M462.157 149.314C509.957 139.364 589.757 198.224 516.967 234.844C459.887 263.564 401.877 161.884 462.157 149.314ZM468.357 21.3239C201.897 74.3839 327.627 375.674 510.457 349.564C773.127 312.054 648.727 -14.5762 468.357 21.3239Z" fill="white"/>
<path fill-rule="evenodd" clip-rule="evenodd" d="M497.167 495.394C525.357 488.294 577.806 533.584 506.186 568.314C471.926 584.924 432.977 511.554 497.167 495.394ZM660.757 542.354C687.386 330.744 340.827 345.054 333.447 525.924C326.637 693.044 633.816 756.384 660.757 542.354Z" fill="white"/>
</svg>
