<?xml version="1.0" encoding="UTF-8"?><svg id="Layer_2" xmlns="http://www.w3.org/2000/svg" viewBox="0 0 442.77 143.75"><defs><style>.cls-1{fill:#fff;}</style></defs><g id="Layer_1-2"><g><g><path class="cls-1" d="m243.42,25.17h15.13l-15.26,45.38h-18.4l-15.26-45.38h15.13l9.36,31.22,9.29-31.22Z"/><path class="cls-1" d="m260.73,24.52c0-3.97,3.14-7.12,8.21-7.12s8.14,3.14,8.14,7.12-3.14,6.99-8.14,6.99-8.21-3.08-8.21-6.99Zm1.03,9.87h14.23v36.15h-14.23v-36.15Z"/><path class="cls-1" d="m296.62,70.55h-14.23v-36.15h14.23v6.67c2.82-4.04,7.18-6.92,11.86-6.92v15.19h-4.04c-5.13,0-7.82,1.47-7.82,6.41v14.81Z"/><path class="cls-1" d="m314.57,46.26h-4.49v-11.86h4.49v-8.72h14.23v8.72h5.9v11.86h-5.9v9.74c0,1.67.77,2.44,2.63,2.44h3.4v12.12h-5.38c-8.46,0-14.87-3.59-14.87-14.81v-9.49Z"/><path class="cls-1" d="m378.54,70.55h-14.23v-5.51c-2.05,3.14-5.64,5.77-11.09,5.77-8.33,0-13.21-6.09-13.21-15.45v-20.96h14.17v19.17c0,3.46,1.99,5.58,5.06,5.58s5.06-2.12,5.06-5.58v-19.17h14.23v36.15Z"/><path class="cls-1" d="m397.97,33.95c4.81,0,8.27,2.12,10,5.38v-4.94h14.17v36.15h-14.17v-4.94c-1.73,3.27-5.19,5.38-10,5.38-8.33,0-14.94-6.86-14.94-18.53s6.6-18.53,14.94-18.53Zm4.74,12.44c-2.95,0-5.26,2.12-5.26,6.09s2.31,6.09,5.26,6.09,5.26-2.12,5.26-6.09-2.31-6.09-5.26-6.09Z"/><path class="cls-1" d="m428.54,23.11h14.23v47.44h-14.23V23.11Z"/><path class="cls-1" d="m228.42,124.01c-10.45,0-17.31-5.58-17.95-12.95h13.65c.32,2.18,2.05,3.14,4.23,3.14,1.47,0,2.37-.77,2.37-1.67,0-4.74-18.65-.38-18.65-13.65,0-6.54,5.19-11.92,15.38-11.92s15.38,5.83,16.41,12.95h-12.63c-.38-1.92-1.79-3.08-4.1-3.08-1.41,0-2.24.58-2.24,1.67,0,4.49,18.91.32,18.91,14.23,0,6.41-5.77,11.28-15.38,11.28Z"/><path class="cls-1" d="m266.63,124.01c-10.9,0-19.1-6.99-19.1-18.53s8.21-18.53,19.1-18.53,19.1,6.99,19.1,18.53-8.21,18.53-19.1,18.53Zm0-12.31c2.5,0,4.68-1.92,4.68-6.22s-2.18-6.22-4.68-6.22-4.68,1.92-4.68,6.22,2.12,6.22,4.68,6.22Z"/><path class="cls-1" d="m328.48,123.56h-14.23v-5.51c-2.05,3.14-5.64,5.77-11.09,5.77-8.33,0-13.21-6.09-13.21-15.45v-20.96h14.17v19.17c0,3.46,1.99,5.58,5.06,5.58s5.06-2.12,5.06-5.58v-19.17h14.23v36.15Z"/><path class="cls-1" d="m334.89,76.13h14.23v47.44h-14.23v-47.44Z"/></g><g><path class="cls-1" d="m98.56,27.17c-.33.19-.7.4-1.05.63l-.14.09c-.14.08-.28.18-.4.27-.77.51-1.52,1.08-2.24,1.7l-.46.42c-.28.26-.55.53-.81.81l-1.17-.87-3.2,4.62,4.57,3.25,3.21-4.62-.66-.47c.11-.11.23-.23.37-.36l.35-.31c.6-.53,1.23-1.02,1.89-1.47l.47-.31c.34-.22.67-.42,1-.6l.31-.17.21.72,5.37-1.55-1.53-5.43-5.37,1.63.4,1.41c-.16.08-.32.16-.47.24l-.66.36Z"/><path class="cls-1" d="m35.17,80.03l3.94-3.99-3.94-3.99-.82.83-4.81-4.85-.25-.22c-.31-.28-.58-.51-.78-.74l-.07-.08c-.23-.22-.45-.43-.67-.67l-.13-.19c-4.22-4.41-6.88-10.19-7.49-16.27-.06-.55-.09-1.08-.11-1.55v-1.19c0-.36,0-.72.01-1.07l.89.18.99-5.56-5.5-1-.99,5.55,1.34.25c-.03.55-.05,1.11-.05,1.66v1.29c.01.6.05,1.2.12,1.78.67,6.75,3.6,13.17,8.26,18.11l.13.18c.29.32.61.63.97.98.26.26.57.55.91.82l4.91,4.94-.82.83,3.96,3.98Z"/><path class="cls-1" d="m125.94,63c.38-.41.77-.85,1.18-1.35l1.24.72,2.79-4.89-4.85-2.82-2.77,4.89.7.41c-.21.25-.43.49-.65.72l-.21.22c-.12.12-.24.24-.39.38l-1.14,1.05-35.07,35.43-.82-.83-3.94,3.99,3.95,3.98,4-3.97-.82-.83,34.98-35.36,1.84-1.74Z"/><polygon class="cls-1" points="65.16 80.06 61.22 84.05 65.16 88.04 65.97 87.22 78.05 99.42 78.21 99.56 78.61 99.56 90.83 87.22 91.64 88.04 95.59 84.05 91.64 80.06 87.69 84.05 88.5 84.86 78.88 94.57 78.88 94.56 78.39 95.06 68.3 84.86 69.11 84.05 65.16 80.06"/><path class="cls-1" d="m49.57,32.3l-1.58-.17h-.37c-.46-.03-.93-.03-1.41,0l-.92.05-1.38.24c-.18.04-.38.09-.56.14l-1.14.35c-.6.21-1.2.47-1.78.77l-.93.52c-.23.14-.47.3-.73.48l-.3.22c-.33.24-.65.49-.99.78l-.04.04h0s-.67.61-.67.61h0c-.4.4-.78.83-1.13,1.27l-.29.37c-1.17,1.51-2.02,3.22-2.55,5.1-.06.21-.11.4-.16.63l-.06.28c-.22,1.04-.33,2.1-.33,3.17v.67c0,.29.01.58.06.84.34,3.32,1.79,6.47,4.1,8.87l.19.2c.08.08.16.17.24.24l1.11,1,17.14,17.26-.82.82,3.95,3.99,3.94-3.99-3.94-3.99-.82.81-17.12-17.33-.63-.56c-.14-.12-.25-.22-.35-.32l-.16-.15c-.06-.05-.12-.11-.19-.2l-.12-.12c-1.79-1.87-2.93-4.32-3.19-6.83.01-.24,0-.48-.05-.71v-.57c-.01-.83.06-1.66.22-2.47l.06-.31c.02-.13.05-.26.12-.44.39-1.44,1.05-2.77,1.96-3.95l.24-.3c.31-.39.65-.76,1-1.09l.46-.42c.23-.21.49-.4.73-.58l.27-.19c.19-.13.38-.26.53-.35l.81-.44c.42-.22.87-.42,1.32-.57l1.01-.31c.15-.04.29-.08.43-.1l.94-.14h2.16c.27,0,.54.03.8.07l.51.08c.18.03.37.06.53.11l1.27.36.74.29c.3.13.51.24.67.31l.41.22c.15.09.32.19.5.3l.31.21c.37.25.73.52,1.06.81l-.61.55,3.79,4.32,4.07-3.64-3.79-4.33-1,.89-.21-.19c-.47-.41-.96-.79-1.47-1.14l-.37-.25c-.24-.16-.48-.29-.72-.43l-.51-.27c-.19-.09-.46-.23-.84-.4l-.29-.12c-.27-.11-.5-.19-.69-.26l-.62-.2-1.03-.26c-.23-.05-.52-.11-.8-.15Z"/><path class="cls-1" d="m70.87,104.9l3.94-3.99-3.94-3.99-.82.83-35.09-35.45-1.02-.92-.69-.7c-.22-.24-.44-.48-.65-.73l.73-.41-2.79-4.9-4.84,2.82,2.78,4.89,1.24-.72c.41.5.8.95,1.17,1.34l.21.22c.16.17.33.33.5.5l.09.09c.19.19.42.4.69.64l.33.29,35.06,35.41-.82.83,3.92,3.96Z"/><polygon class="cls-1" points="61.81 106.87 65.75 102.89 61.81 98.9 61 99.71 45.72 84.29 46.54 83.47 42.58 79.48 38.64 83.47 42.58 87.46 43.4 86.64 58.67 102.07 57.86 102.89 61.81 106.87"/><path class="cls-1" d="m52.18,23.52l-1.53,5.43,5.37,1.55.21-.72.31.17c.34.18.67.38,1.01.61l.45.3c.66.45,1.3.94,1.91,1.48l.39.36c.11.1.21.2.32.3l-.66.47,3.2,4.62,4.58-3.25-3.21-4.62-1.17.87c-.27-.28-.56-.56-.88-.86l-.41-.37c-.7-.6-1.44-1.17-2.2-1.69l-.54-.36c-.41-.26-.83-.5-1.21-.72l-.97-.51.4-1.41-5.36-1.63Z"/><path class="cls-1" d="m147.71,50.69c.07-.69.13-1.35.13-1.99v-1.57c0-2.69-.28-5.39-.82-8v-.1c-.17-.75-.36-1.54-.57-2.32-.95-3.41-2.36-6.67-4.19-9.7l1.06-.8-3.41-4.5-4.45,3.41,3.37,4.5.78-.58c1.59,2.68,2.82,5.56,3.66,8.56.18.68.34,1.33.47,1.96v.17c.52,2.43.78,4.93.78,7.41v1.46c-.02.65-.07,1.33-.15,2.06-.6,6.15-2.81,12.03-6.4,17.05l-.74-.67-3.71,4.22,4.24,3.72,3.72-4.2-.96-.85c4.04-5.56,6.52-12.1,7.18-18.94l.03-.28Z"/><polygon class="cls-1" points="43.15 99.15 47.09 95.16 43.15 91.17 42.34 91.98 27.93 77.43 28.74 76.62 24.8 72.63 20.86 76.62 24.8 80.61 25.61 79.79 40.01 94.34 39.2 95.16 43.15 99.15"/><polygon class="cls-1" points="114.21 87.46 118.15 83.47 114.21 79.48 110.27 83.47 111.07 84.29 95.79 99.71 94.99 98.89 91.04 102.89 95 106.88 98.94 102.89 98.13 102.07 113.4 86.64 114.21 87.46"/><path class="cls-1" d="m127.36,9.02l.36-.99c.5.23.99.48,1.47.73l.55.29c.37.19.75.4,1.16.64l.61.37c.7.42,1.38.87,2.1,1.35l.56.38c.13.09.25.18.38.28,1.24.9,2.44,1.88,3.58,2.9l2.03,1.84v.11l.46.49c.68.7,1.34,1.49,1.98,2.25l.17.2c.22.26.43.54.65.82l.08.1c3.36,4.4,5.8,9.35,7.27,14.68.24.88.46,1.79.63,2.62l.16.82c.19.97.35,1.99.47,3.11h-.98l.18,5.77,5.58-.15-.15-5.64-1.3.04c-.13-1.19-.3-2.38-.51-3.46l-.17-1.08c-.2-.94-.43-1.89-.69-2.82-1.58-5.76-4.22-11.09-7.86-15.86-.16-.19-.31-.37-.45-.55-.12-.15-.24-.3-.36-.44-.65-.8-1.26-1.52-1.86-2.17v-.27l-3.12-2.84c-1.22-1.1-2.52-2.15-3.84-3.12-.25-.19-.51-.37-.76-.53-.8-.6-1.61-1.15-2.49-1.68l-.64-.38c-.45-.27-.88-.5-1.28-.71l-.58-.31c-.58-.31-1.2-.62-1.84-.91l.43-1.18-5.24-1.99-1.97,5.28,5.24,2Z"/><path class="cls-1" d="m140.38,39.68l-5.5,1,.99,5.55.89-.17c.01.35.01.7.01,1.07v1.17c-.02.49-.06,1.02-.11,1.57-.61,6.08-3.26,11.86-7.54,16.33-.25.28-.52.54-.8.81l-.07.07c-.17.19-.39.39-.65.62l-5.17,5.18-.82-.83-3.94,3.99,3.94,3.99,3.94-3.99-.82-.82,4.87-4.91c.37-.31.68-.6.99-.89.32-.3.63-.62.97-.97,4.72-4.95,7.7-11.43,8.4-18.32.06-.6.11-1.16.11-1.72v-1.28c0-.56-.02-1.12-.05-1.67l1.33-.25-.99-5.55Z"/><path class="cls-1" d="m19.07,74.98l4.17-3.75-3.71-4.22-.73.67c-3.59-5.02-5.8-10.9-6.4-17.04-.07-.72-.11-1.4-.14-2.04v-1.48c0-2.49.28-4.98.81-7.41v-.18c.15-.64.3-1.28.49-1.96.83-3,2.05-5.88,3.65-8.56l.78.58,3.37-4.5-4.45-3.41-3.4,4.51,1.06.8c-1.83,3.03-3.24,6.29-4.17,9.7-.21.75-.4,1.54-.57,2.33v.13c-.55,2.62-.83,5.3-.83,7.97v1.57c0,.65.06,1.31.13,2l.03.27c.66,6.85,3.14,13.39,7.18,18.94l-.96.85,3.72,4.21Z"/><polygon class="cls-1" points="131.99 80.61 135.93 76.62 131.99 72.63 128.04 76.62 128.85 77.43 114.45 91.98 113.64 91.17 109.69 95.16 113.64 99.15 117.58 95.16 116.77 94.34 131.18 79.79 131.99 80.61"/><path class="cls-1" d="m41.2,5.49l-.23-.98.14-.02c.2-.03.4-.06.61-.09l2.48-.25c1.44-.11,2.9-.14,4.37-.08h.81c1.1.06,2.07.15,2.95.26l1.49.21c1.02.17,1.98.35,2.87.56l2.3.58,1.8.57c.73.25,1.5.53,2.35.87l.76.31c1,.43,1.99.9,2.95,1.41l.74.4c.8.45,1.59.94,2.53,1.53.3.2.61.39.91.6,1.43.98,2.82,2.05,4.11,3.19l1.22,1.12c.28.26.56.52.82.81l.82.83.17.12.16.02.55-.02v-.36l.63-.64c.39-.39.78-.75,1.16-1.11l.89-.82c1.3-1.15,2.68-2.22,4.11-3.2l.99-.65c.73-.48,1.56-.97,2.47-1.48l.74-.4c1.01-.53,2-1,2.96-1.41l.76-.31c.82-.33,1.59-.61,2.31-.86l.87-.21,1.03-.32,2.31-.6c.9-.21,1.87-.4,2.86-.56l1.49-.21c.9-.11,1.87-.2,2.94-.26h.86c1.45-.06,2.91-.03,4.35.08l2.21.22,1.02.14-.23.98,5.44,1.32,1.3-5.48-5.45-1.31-.3,1.25-.34-.05c-.34-.08-.69-.12-.99-.14-.51-.09-1.03-.14-1.47-.15-.34-.07-.68-.1-.97-.08-1.55-.11-3.12-.14-4.65-.09h-.94c-1.08.06-2.15.15-3.19.28-.55.07-1.07.14-1.59.23-1.1.18-2.15.38-3.1.6l-2.49.64-.5.16c-.23.07-.45.14-.59.18-.22.07-.46.15-.71.24l-.12.04c-.7.23-1.49.52-2.45.91l-.9.36c-1.08.46-2.14.97-3.15,1.51-.3.14-.58.29-.85.44-.89.49-1.78,1.02-2.65,1.59l-.1.06c-.32.21-.65.42-.96.64-1.54,1.05-3.04,2.21-4.41,3.42-.34.27-.68.56-.99.86l-.08.07-.07-.07c-.31-.3-.64-.59-.96-.84-1.4-1.23-2.89-2.39-4.44-3.45l-1.05-.7c-.86-.56-1.76-1.09-2.65-1.58-.28-.17-.57-.32-.84-.44-.99-.53-2.06-1.04-3.17-1.52l-.75-.32-.15-.04c-.73-.29-1.59-.63-2.44-.9l-.13-.05c-.25-.09-.48-.17-.71-.23-.12-.03-.28-.09-.46-.15-.21-.07-.43-.14-.65-.2l-2.47-.64c-.95-.22-1.99-.42-3.09-.6-.53-.08-1.05-.16-1.61-.23-1.18-.13-2.22-.22-3.21-.27h-.89c-1.55-.05-3.13-.02-4.64.09h0c-.33,0-.65.03-.92.07-.52.02-1.04.08-1.49.16-.35.02-.7.07-1.01.14l-.37.06-.3-1.25-5.43,1.31,1.29,5.49,5.43-1.31Z"/><path class="cls-1" d="m50.81,105.2l23.1,23.34c.59.6,1.29,1.07,2.07,1.4.76.32,1.56.48,2.38.49h.11s0,0,0,0c1.68-.02,3.26-.69,4.44-1.89l23.09-23.34.82.83,3.94-3.99-3.94-3.99-3.94,3.99.82.83-23.1,23.35c-.29.29-.62.51-1,.67-.22.09-.45.16-.69.2v-.12s-.5.14-.5.14l-.53-.14v.12c-.22-.04-.43-.1-.64-.19-.38-.16-.71-.38-1-.67l-23.11-23.35.82-.83-3.94-3.99-3.94,3.99,3.94,3.99.82-.83Z"/><path class="cls-1" d="m5.76,42.04h-.98c.12-1.04.28-2.09.48-3.11l.16-.82c.18-.84.39-1.73.63-2.62,1.47-5.34,3.92-10.28,7.27-14.68l.08-.11c.22-.28.43-.56.65-.82.69-.82,1.42-1.69,2.16-2.46l.43-.48v-.1l2.04-1.84c1.13-1.03,2.33-2.01,3.58-2.91.15-.11.29-.21.45-.32l.69-.47c.65-.43,1.27-.85,1.89-1.22l.61-.36c.38-.23.75-.43,1.16-.65l.57-.3c.48-.26.97-.49,1.46-.73l.36.99,5.23-1.99-1.97-5.28-5.23,1.99.43,1.18c-.62.29-1.24.6-1.84.91l-.58.31c-.4.21-.83.44-1.27.71l-.66.38c-.88.53-1.69,1.08-2.47,1.66-.27.18-.53.37-.77.55-1.33.96-2.63,2.01-3.85,3.12l-3.13,2.84v.26c-.61.66-1.23,1.39-1.85,2.17l-.83,1.01c-3.62,4.75-6.26,10.08-7.85,15.84-.26.96-.5,1.91-.69,2.83l-.17.92v.07c-.21,1.16-.39,2.35-.51,3.55l-1.29-.04-.16,5.64,5.59.15.17-5.75Z"/><path class="cls-1" d="m131.85,14.09l-.84,1.02c-.62-.43-1.24-.83-1.84-1.19l-2.11-1.18c-1.56-.82-3.2-1.53-4.87-2.12l-.57-.2c-.36-.13-.79-.27-1.28-.41l-.68-.19c-.75-.21-1.56-.41-2.3-.56-.26-.08-.54-.13-.75-.14-.53-.11-1.05-.2-1.53-.25l-.73-.11c-.44-.07-.88-.12-1.31-.14l-.73-.06c-1.3-.1-2.62-.12-3.91-.08h-.73c-.97.06-1.86.13-2.69.23-.39.04-.77.1-1.15.16l-.17.03c-.96.15-1.83.34-2.57.5l-2.04.52-1.68.56c-.72.24-1.41.5-2.13.79l-.63.27c-1.02.43-1.93.87-2.7,1.29l-.62.34c-.66.35-1.39.78-2.25,1.34l-.81.56c-1.29.88-2.53,1.85-3.7,2.88-.27.23-.52.46-.78.7-1.34,1.25-2.61,2.6-3.76,4.03l-1.1-.74-.48.75-.53-.73-1.08.72c-1.16-1.43-2.42-2.78-3.76-4.03l-.08-.07c-.24-.22-.47-.43-.71-.63-1.17-1.03-2.42-2-3.71-2.89l-.33-.23c-.17-.11-.33-.23-.49-.34-.76-.5-1.52-.95-2.23-1.33l-.62-.34c-.76-.42-1.67-.85-2.7-1.29l-.65-.28c-.77-.31-1.46-.57-2.12-.79l-1.64-.53-2.02-.52c-.73-.16-1.6-.35-2.57-.5l-.16-.03c-.38-.06-.76-.11-1.15-.16-.85-.1-1.76-.18-2.71-.23h-.69c-1.31-.05-2.63-.02-3.93.08l-.71.06c-.44.02-.88.07-1.26.13-.28.01-.56.05-.78.11-.48.06-.98.14-1.47.25-.28.02-.55.07-.77.14-.78.16-1.6.36-2.35.57l-.69.19c-.48.14-.9.28-1.26.4l-.58.2c-1.68.59-3.33,1.3-4.91,2.13l-.49.27c-.33.17-.67.36-1.09.6l-.5.31c-.64.38-1.26.78-1.85,1.19l-.84-1.03-4.28,3.62,3.61,4.31,4.28-3.62-.61-.74c.34-.23.68-.44,1.01-.65l.87-.54c.31-.18.63-.36.98-.54l.46-.25c1.45-.75,2.96-1.41,4.53-1.95.11-.04.21-.08.32-.12l1.3-.42.64-.17c.76-.21,1.52-.38,2.18-.52.14-.03.29-.06.44-.09l.18-.03c.5-.1.95-.17,1.4-.23l.67-.09c.43-.06.8-.1,1.17-.12l.66-.06c1.19-.09,2.4-.11,3.62-.07h.64c.91.05,1.69.12,2.45.21l1.21.17c.86.14,1.65.29,2.35.46l.73.17,1.3.37c.22.07.45.13.69.22l.61.2c.62.21,1.26.45,1.95.73l.56.24c.93.4,1.74.79,2.48,1.19l.56.31c.67.37,1.33.77,2.04,1.23l.8.51c1.18.81,2.32,1.7,3.41,2.66.24.2.46.4.69.62,1.15,1.07,2.23,2.23,3.23,3.44l-.78.53,3.09,4.71,2.07-1.39,2.03,1.37,3.09-4.7-.78-.52c1-1.22,2.08-2.37,3.23-3.44.23-.22.46-.42.71-.63,1.07-.95,2.21-1.84,3.38-2.63l.37-.24c.15-.1.3-.19.46-.29.6-.41,1.24-.79,2.03-1.22l.14-.08c.14-.08.27-.15.41-.23.78-.41,1.59-.8,2.48-1.19l.55-.23c.71-.29,1.34-.52,1.95-.73l2.59-.78.75-.17c.72-.17,1.51-.32,2.35-.46l1.21-.17c.72-.09,1.49-.16,2.39-.21h.69c1.2-.04,2.41-.02,3.59.07l.68.06c.37.02.73.07,1.16.12l.67.09c.46.07.9.14,1.4.24l.18.03c.15.03.3.05.46.09.74.15,1.44.32,2.17.52l.62.17,1.67.55c1.54.54,3.06,1.19,4.49,1.94l.48.26c.34.18.66.35.98.54l.86.53c.34.21.68.43,1.02.66l-.61.74,4.29,3.62,3.5-4.34-4.27-3.62Z"/><path class="cls-1" d="m150.33,56.36l.97.13c-1.72,7.72-5.5,14.82-10.95,20.56-.45.48-.91.95-1.39,1.4-.34.35-.7.68-1.08,1l-48.19,48.67-.83-.81-3.94,3.98,3.95,3.99,3.94-3.99-.82-.82,48.06-48.55c.43-.38.8-.73,1.15-1.06.44-.41.92-.89,1.51-1.51,5.95-6.26,10.05-14,11.88-22.44l1.28.17.71-5.59-5.54-.73-.71,5.6Z"/><polygon class="cls-1" points="78.37 138.92 72 132.98 69.68 135.52 78.52 143.75 86.41 135.42 83.94 133.04 78.37 138.92"/><path class="cls-1" d="m67.92,127.34l-.8.78-48.18-48.66c-.4-.37-.76-.69-1.1-1.02-.46-.44-.92-.91-1.38-1.39-5.45-5.74-9.23-12.84-10.95-20.56l.97-.13-.73-5.6-5.54.73.72,5.59,1.28-.17c1.82,8.44,5.91,16.2,11.86,22.46.56.59,1.06,1.09,1.5,1.51.35.34.72.69,1.13,1.04l48.09,48.58-.82.82,3.95,4,3.94-3.99-3.94-3.98Z"/><polygon class="cls-1" points="65.05 46.26 58.78 46.26 76.6 86.53 78.41 90.82 81.93 83.49 98.11 46.26 92.49 46.26 78.46 78.74 65.05 46.26"/><path class="cls-1" d="m104.03,33.18l-.28.12c-.42.19-.73.34-.9.43l-.49.26c-.22.12-.44.25-.67.4l-.37.25c-.51.35-1,.73-1.48,1.15l-.17.15-.95-.85-3.79,4.32,4.07,3.64,3.8-4.32-.65-.58c.33-.28.67-.54,1.03-.78l.32-.21c.16-.11.32-.2.49-.3l.4-.22c.1-.05.27-.13.49-.23l1.84-.65.38-.09c.14-.04.34-.07.62-.12l1.18-.13h2.11s.55.07.55.07h.05s.43.07.43.07c.12.02.25.06.38.09l1.05.32c.45.16.9.35,1.31.57l.81.44c.16.09.34.22.53.35l.26.19c.25.18.5.38.73.57l.45.42c.36.34.7.71,1.01,1.09l.24.31c.91,1.19,1.57,2.52,1.98,4.01.05.12.08.26.11.43l.06.26c.17.81.26,1.64.26,2.47v.58c0,.05,0,.11-.02.18-.02.14-.03.3-.03.44-.27,2.58-1.4,5.03-3.19,6.9l-.49.48c-.08.09-.18.17-.34.31l-.64.57-17.09,17.29-.76-.84-3.96,4.01,3.96,3.99,3.94-3.99-.82-.82,17.04-17.23,1.01-.9.52-.53c2.31-2.41,3.76-5.56,4.09-8.84.05-.29.07-.58.06-.86v-.72c0-1.06-.11-2.13-.33-3.17l-.06-.27c-.04-.23-.1-.45-.16-.67-.51-1.85-1.36-3.55-2.53-5.06l-.29-.37c-.41-.5-.85-.98-1.32-1.42l-.48-.46-.05.05-.05-.05c-.33-.28-.65-.53-.99-.78l-.3-.2c-.25-.19-.51-.35-.75-.5l-.93-.52c-.57-.29-1.16-.54-1.77-.76l-1.13-.35c-.18-.05-.37-.09-.54-.13l-1.48-.25h-.25s-.62-.05-.62-.05c-.46-.03-.93-.03-1.37,0l-1.46.1-.46.07c-.29.04-.61.11-.86.16l-1.59.45c-.2.06-.43.15-.72.26Z"/><path class="cls-1" d="m133.57,44.26l-1.44-.07c-.08-.62-.18-1.24-.31-1.86l-.07-.33c-.08-.36-.17-.7-.27-1.08-.78-2.82-2.08-5.43-3.86-7.75l-.09-.13c-.08-.1-.15-.2-.21-.27l-.1-.13c-.63-.8-1.33-1.57-2.07-2.28l-.71-.64c-.5-.46-1.03-.89-1.59-1.28l-.4-.28c-.4-.28-.8-.54-1.19-.77l-1.32-.75c-.91-.47-1.85-.88-2.82-1.22l-1.61-.5c-.43-.12-.85-.23-1.27-.31l-.52-.1c-.25-.06-.5-.11-.73-.13l-1-.12-.09-1.44-5.57.38.37,5.63,5.55-.38-.05-.82,1.36.23c.35.07.7.16,1.05.26l1.39.44c.82.28,1.62.63,2.38,1.02l1.16.65c.32.19.65.41,1.01.66l.35.24c.53.4.96.74,1.33,1.06l.63.59c.62.59,1.21,1.23,1.76,1.91l.34.43c1.52,1.99,2.63,4.22,3.3,6.63.09.31.16.6.22.88l.07.32c.08.36.14.72.19,1.07h-.73l-.25,5.62,5.57.24.25-5.63Z"/><polygon class="cls-1" points="82.39 107.16 78.32 103.52 74.53 107.85 78.6 111.49 82.39 107.16"/><path class="cls-1" d="m44.8,24.3l-2.24.35c-.41.08-.84.19-1.26.3l-1.6.5c-.96.34-1.91.75-2.82,1.22l-.51.28c-.16.09-.33.17-.52.29l-.28.17c-.39.23-.79.49-1.19.77l-.41.29c-.41.3-.82.64-1.22.97l-1.07.94c-.73.69-1.42,1.44-2.06,2.22l-.41.52c-1.78,2.33-3.08,4.93-3.86,7.76-.1.37-.18.71-.27,1.08l-.06.32c-.13.61-.24,1.23-.32,1.86l-1.45.07.25,5.63,5.58-.25-.25-5.63-.77.04c.05-.35.11-.69.18-1.04l.06-.31c.06-.29.14-.58.23-.89.66-2.41,1.77-4.64,3.32-6.65l.32-.42c.54-.67,1.13-1.31,1.75-1.9l.64-.58c.42-.37.86-.72,1.33-1.06l.37-.26c.34-.25.67-.46.99-.65l.34-.2c.1-.06.19-.11.32-.17l.49-.27c.77-.4,1.57-.74,2.34-1.01l1.42-.39c.36-.1.72-.18,1.05-.26l1.38-.24-.05.83,5.56.33.37-5.62-5.58-.38-.09,1.44Z"/><path class="cls-1" d="m130.3,24.49l-.69-.62c-.7-.65-1.44-1.27-2.21-1.85l-.07-.05c-.07-.06-.15-.12-.24-.17l-.2-.13c-.62-.43-1.16-.78-1.66-1.07l-1.74-.93c-1.24-.65-2.55-1.22-3.86-1.68l-2.07-.63c-.67-.19-1.26-.33-1.91-.45l-.44-.07h-.1c-.39-.06-.76-.12-1.16-.17h-.12s-.44-.05-.44-.05h-.07s-.96-.1-.96-.1h-.65c-1.02-.08-2.06-.1-3.08-.07h-.58c-.74.04-1.45.1-2.18.19l-1.01.16c-.77.12-1.43.25-1.99.38l-1.69.42-.8.26c-.1.03-.19.06-.29.09l-.2.04c-.51.17-1.02.36-1.57.58l-.62.23c-.76.33-1.47.67-2.09,1l-.55.3c-.59.32-1.17.67-1.8,1.08l-.63.42c-1.03.7-2.03,1.47-3,2.33-.19.16-.37.32-.59.53-.81.76-1.59,1.58-2.33,2.42l-1.03-.63-3.12,4.65,4.61,3.17,3.13-4.68-.76-.51c.57-.64,1.17-1.25,1.79-1.84.12-.12.25-.23.37-.33l.2-.12c.83-.74,1.72-1.42,2.64-2.05l.65-.43c.45-.3.94-.6,1.52-.92l.49-.27c.59-.31,1.22-.61,1.87-.9l.47-.17c.49-.2.94-.37,1.38-.52l.21-.04c.08-.03.16-.06.27-.09l.27-.09c.11-.04.21-.07.32-.1l1.69-.42c.56-.13,1.16-.24,1.81-.35.28-.06.57-.1.88-.12.64-.07,1.28-.13,1.89-.17h.57c.91-.03,1.83-.01,2.78.06h.62c.09,0,.17.02.27.03.18.03.37.06.58.06h.33s.28.04.28.04c.27.03.56.08.89.14l.09.02h.12s.37.05.37.05h.05c.51.09,1.03.22,1.6.38l1.82.53c1.17.41,2.32.91,3.42,1.48l.49.27c.17.09.34.19.52.29l.48.28.16.06c.44.27.89.57,1.36.9l.42.31c.65.46,1.31.98,1.95,1.54l.34.3-.69.59,3.6,4.32,4.26-3.64-3.59-4.31-1.04.86Z"/><polygon class="cls-1" points="69.58 113.08 78 121.58 78.26 122.14 87.23 113.08 88.03 113.9 91.98 109.91 88.03 105.92 84.09 109.91 84.9 110.72 78.89 116.79 78.88 116.61 78.39 117.21 77.88 116.59 77.88 116.76 71.9 110.72 72.71 109.91 68.77 105.92 64.83 109.91 68.77 113.9 69.58 113.08"/><path class="cls-1" d="m70.1,26.86c-.73-.84-1.51-1.65-2.33-2.42l-.62-.56c-.93-.83-1.93-1.6-2.96-2.3l-.7-.47c-.57-.37-1.15-.71-1.7-1.01l-.58-.31c-.61-.33-1.32-.68-2.09-1l-.46-.2-.17-.04c-.56-.22-1.07-.41-1.58-.58l-1.31-.4-1.56-.4h-.14c-.63-.16-1.29-.29-1.96-.39l-1.03-.16c-.71-.08-1.42-.14-2.19-.19h-.53c-1.03-.03-2.07-.01-3.06.07h-.74s-.85.1-.85.1l-.75.05c-.34.04-.7.1-1.02.17l-.73.08c-.6.12-1.21.27-1.8.43l-2.08.63c-1.33.47-2.63,1.03-3.88,1.68l-1.72.92c-.53.31-1.09.68-1.66,1.07l-.5.35c-.78.56-1.52,1.15-2.21,1.76l-.69.63-1.04-.86-3.59,4.31,4.27,3.64,3.59-4.32-.69-.59.33-.29c.65-.57,1.31-1.09,1.97-1.56l.42-.3c.53-.37.96-.65,1.35-.89l.58-.31c.2-.11.38-.22.59-.33l.48-.26c1.1-.57,2.25-1.07,3.43-1.48l1.85-.53c.54-.15,1.08-.28,1.5-.38l.67-.06c.35-.06.65-.12.95-.15l.58-.04c.22,0,.42-.03.6-.06.09-.01.17-.03.21-.03h.71c.92-.07,1.84-.09,2.77-.06h.52c.64.04,1.29.1,1.94.17.29.02.58.06.89.13.63.11,1.23.22,1.79.35l1.65.41c.11.03.23.07.36.12l.29.09c.08.02.16.04.24.08l.18.04c.43.15.89.32,1.37.52l.47.17c.67.29,1.3.6,1.88.9l.51.28c.57.31,1.07.61,1.54.92l.61.41c.92.63,1.81,1.32,2.64,2.05l.19.12h0c.12.11.24.22.37.34.62.58,1.23,1.2,1.8,1.84l-.76.51,3.13,4.68,4.63-3.16-3.14-4.66-1.09.72Z"/></g></g></g></svg>