<svg width="448" height="448" viewBox="0 0 448 448" fill="none" xmlns="http://www.w3.org/2000/svg">
<path d="M115.641 419.959C147.812 437.782 184.764 448 224.108 448C347.792 448 448.001 347.575 448.001 223.891C448.001 100.207 347.792 0 224.108 0C100.425 0 -0.000961304 100.207 -0.000961304 223.891C-0.000961304 263.67 10.4336 300.622 28.4746 333.012L-0.000961304 448L115.641 419.959ZM128.031 124.987C133.247 119.987 140.856 118.031 147.812 119.554L154.984 121.075C162.158 122.596 168.027 127.379 170.853 133.899L184.981 165.201C188.46 172.808 187.156 181.938 181.504 188.242L172.808 198.459C169.983 201.719 169.332 206.718 171.505 210.632C197.154 256.714 230.847 271.713 245.845 276.276C250.192 277.799 255.193 275.843 257.584 271.928L263.887 262.148C269.974 252.801 281.929 249.54 295.188 256.061L321.273 269.104C331.272 273.886 335.837 285.623 332.141 296.057C318.883 334.531 284.972 329.75 284.972 329.75C209.763 327.793 150.854 258.452 125.423 222.804C113.684 206.066 106.512 185.851 108.684 165.201C110.859 144.768 120.424 131.943 128.031 124.987Z" fill="white"/>
</svg>
